<svg xmlns="http://www.w3.org/2000/svg" viewBox="0 0 360 540"><defs><style>.cls-3,.cls-5{fill:none;stroke:#fff;stroke-linecap:round;stroke-linejoin:round;stroke-width:1.71px}</style></defs><g id="2" data-name="1"><g id="svg2"><g id="b01"><rect id="rect6472-45" x=".5" y=".5" width="359" height="539" rx="29.94" style="stroke:#000;fill:red"/><path style="fill:red" d="M23.74 3.43h312.53v533.13H23.74z"/><path class="cls-3" d="m34.28 517.41 9.16-9.15 9.15 9.15-9.15 9.16ZM318 508.26l-9.16 9.15 9.16 9.16 9.15-9.16ZM52.59 526.57l9.15-9.16 9.16 9.16h82.38l9.15-9.16 9.15 9.16m19 0 8.42-9.16 9.16 9.16h82.37l9.16-9.16 9.15 9.16M52.59 508.26h9.15l9.16 9.15h82.38l9.15-9.15h9.15l9.16-9.15 9.15 9.15H199l9.16 9.15h82.37l9.16-9.15h9.15m-128.14 0-9.16 9.15 9.16 9.16 9.15-9.16ZM34.28 23.13l9.16 9.15 9.15-9.15L43.44 14ZM318 32.28l-9.16-9.15L318 14l9.15 9.15ZM52.59 14l9.15 9.15L70.9 14h82.38l9.15 9.15 9.15-9.15m19 0 8.42 9.13 9.2-9.13h82.37l9.16 9.15 9.15-9.15M52.59 32.28h9.15l9.16-9.15h82.38l9.15 9.15h9.15l9.16 9.16 9.15-9.16H199l9.16-9.15h82.37l9.16 9.15h9.15m-128.14 0-9.16-9.15 9.2-9.13 9.15 9.15Z"/><path d="m34.34 150.55 9.13-8.45-9.19-9.1-.35-82.29 9.13-9.19-9.18-9.12m18.74 128-9.13 9.18-9.18-9.12 9.13-9.18ZM34.68 508.31l9.13-9.18-9.18-9.13-.35-82.41 9.13-9.18-9.19-9.13m0-19 9.12-8.45-9.18-9.12.34-164.79 9.13-9.18-9.18-9.13M53 508.26v-9.15L43.78 490l-.34-82.41 9.12-9.18v-9.15l9.12-9.19-9.18-9.12v-9.15l-9.19-9.13.35-164.76 9.12-9.18v-9.15l9.13-9.19-9.18-9.12v-9.15L43.44 133l-.35-82.32 9.12-9.18v-9.16m.25 347.77-9.12 9.19-9.18-9.13 9.1-9.17Zm274.68-229.56L318 142.1l9.18-9.13.26-82.23-9.12-9.19 9.18-9.12m-18.66 128 9.13 9.18 9.18-9.12-9.15-9.21Zm17.85 348-9.12-9.18 9.18-9.13.43-82.49-9.12-9.18 9.18-9.12m.06-19-9.13-8.44 9.18-9.13-.23-164.76-9.12-9.29 9.18-9.13m-18.8 338.73v-9.15l9.22-9.16.44-82.5-9.13-9.18v-9.15l-9.09-9.17 9.18-9.1v-9.15l9.18-9.13-.35-164.73-9.12-9.18v-9.15l-9.13-9.19 9.18-9.12v-9.15L318 133l.26-82.26-9.13-9.19V32.4M309 380.05l9.13 9.19 9.18-9.13-9.12-9.18Z" style="fill:none;stroke:#fff;stroke-linecap:round;stroke-linejoin:round;stroke-width:1.71px"/><path class="cls-3" d="m180.74 59.74 100.68 100.69v219.68L180.74 480.8 80.05 380.11V160.43ZM199 41.44l9.16-9.16h82.37l18.31 18.31V133l-9.15 9.16v9.15h-9.16l-45.76-45.77v-9.18l-9.87-.72-45.05-45v-9.2Zm9.16 9.15 9.15-9.15h73.22v9.15h9.16v73.23l-9.12 9.18L254 96.36V87.2h-9.15Zm54.91 0h18.31l9.15 9.15v18.31h-27.42Zm-36.61 0H254v27.46Zm64.11 36.61h-27.46l27.46 27.47Z"/><path class="cls-5" d="M61.65 142.11 52.51 133l.07-82.38 18.33-18.34 82.37.07 9.15 9.17h9.15v9.16l-45.77 45.68h-9.15v9.15l-45.87 45.76h-9.15Zm9.16-9.11-9.14-9.16.07-73.22h9.15v-9.19l73.22.07 9.15 9.16-36.64 36.58h-9.16v9.15Zm.09-54.91V59.74l9.15-9.15h18.31v27.48Zm-.07 36.61V87.24h27.45Zm36.67-64v27.46L135 50.64Z"/><path class="cls-3" d="m162.43 499.19-9.15 9.16H70.9L52.59 490v-82.34l9.15-9.16v-9.15h9.16L116.66 435v9.15h9.15L171.58 490v9.15Zm-9.15-9.19-9.16 9.15H70.9V490h-9.16v-73.19l9.16-9.15 36.61 36.61v9.15h9.15Zm-73.23 0-9.15-9.2v-18.31h27.46V490Zm54.95 0h-27.49v-27.42Zm-64.1-36.58h27.46L70.9 426Z"/><path class="cls-5" d="m299.82 398.52 9.15 9.16-.08 82.38-18.32 18.29-82.38-.08-9.19-9.16h-9.15V490l45.75-45.77h9.16V435l45.87-45.67h9.15Zm-9.16 9.14 9.14 9.17-.06 73.22h-9.16v9.16l-73.23-.07-9.14-9.14 36.64-36.58H254v-9.15Zm-.08 73.14-9.16 9.2h-18.31v-27.39l27.43-.07Zm.06-54.83v27.46h-27.46ZM254 490v-27.46L226.51 490Z"/><path class="cls-3" d="M52.59 261.12H70.9v18.31H52.59Zm0-18.31 9.15-9.15 9.16 9.15V252H52.59Zm0 54.92v-9.15H70.9v9.15l-9.16 9.15ZM70.9 206.2 52.59 197l18.31-27.42Zm-18.31 0 18.31 9.15-18.31 18.31Zm0 100.68 18.31 18.31-18.31 9.15Zm0 36.62 18.31-9.16V371Zm237.98-82.38h18.31v18.31h-18.31Zm18.31-18.31-9.15-9.15-9.16 9.15V252h18.31Zm0 54.92v-9.15h-18.31v9.15l9.16 9.15Zm-18.31-91.53 18.31-9.2-18.31-27.46Zm18.31 0-18.31 9.15 18.31 18.31Zm0 100.68-18.31 18.31 18.31 9.15Zm0 36.62-18.31-9.16V371ZM180.74 68.9l-36.62 45.77H135v9.15l-45.8 36.61L135 197v9.16h9.15L180.74 252l36.61-45.77h9.15V197l45.77-36.61-45.77-36.57v-9.15h-9.15Zm0 18.3-27.46 27.47h54.92Zm-73.23 73.23L135 133v54.92Zm146.45 0L226.5 133v54.92Zm-73.22 73.23-27.46-27.46h54.92Zm-36.62-109.84h73.23V197h-73.23Zm36.62 164.76-36.62 45.76H135v9.16l-45.8 36.61 45.8 36.61v9.16h9.15l36.62 45.76 36.61-45.76h9.15v-9.16l45.77-36.61-45.8-36.61v-9.16h-9.15Zm0 18.3-27.46 27.46h54.92Zm-73.23 73.23L135 352.65v54.92Zm146.45 0-27.46-27.46v54.92Zm-73.22 73.23-27.46-27.46h54.92ZM144.12 343.5h73.23v73.22h-73.23Zm27.46-73.23 9.16-9.15 9.15 9.15-9.15 9.16Zm0-18.3L135 215.35l-27.46 27.46v54.92L135 325.19l36.61-36.61-9.15-18.31Zm-64.07-18.31 18.3-27.46-18.3-18.31Zm18.3 100.68-18.3-27.46v45.77ZM89.2 169.58l9.16 9.16V361.8L89.2 371ZM116.66 252 135 233.66l18.31 27.46Zm0 36.61 36.62-9.15L135 306.88Zm0-27.46 18.34 9.12-18.31 9.16v-18.31"/><path class="cls-3" d="m189.89 288.58 36.61 36.61 27.5-27.46v-54.92l-27.5-27.46L189.89 252l9.15 18.3Zm64.11 18.3-18.31 27.46L254 352.65ZM235.65 206.2 254 233.66v-45.77ZM272.27 371l-9.16-9.16v-183.1l9.16-9.16Zm-27.46-82.38-18.31 18.3-18.3-27.45Zm0-36.61-36.61 9.15 18.3-27.46Zm0 27.46-18.31-9.16 18.31-9.15v18.31m-91.53-119.04L180.74 133l27.46 27.46-27.46 27.46Zm18.3-9.15h18.31v18.3h-18.31Zm-18.3-9.15V133h9.15v9.16Zm45.76 0V133h9.16v9.16Zm0 45.76v-9.15h9.16v9.15Zm-45.76-9.15h9.15v9.15h-9.15Zm0 201.37 27.46-27.46 27.46 27.46-27.46 27.46Zm18.3-9.15h18.31v18.31h-18.31Zm-18.3-18.31v9.15h9.15v-9.15Zm45.76 0h9.16v9.15H199Zm0 45.77h9.16v9.15H199Zm-45.76 0h9.15v9.15h-9.15Z"/></g></g></g></svg>