<svg xmlns="http://www.w3.org/2000/svg" viewBox="0 0 360 540"><g data-name="1"><rect x=".5" y=".5" width="359" height="539" rx="29.94" style="fill:#fff;stroke:#000"/><path d="M30 30a10 10 0 0 0-10 10v5h5v-5a5 5 0 0 1 10 0v5a8.13 8.13 0 0 1-1 3.9C29.54 58 24.72 66 20 75v5h20V70h-5v5h-9.5C30 67.08 33.72 59.43 38 51.4a11.2 11.2 0 0 0 2-6.4v-5a10 10 0 0 0-10-10Zm300 480a10 10 0 0 0 10-10v-5h-5v5a5 5 0 0 1-10 0v-5a8.13 8.13 0 0 1 1-3.9c4.46-9.1 9.28-17.13 14-26.1v-5h-20v10h5v-5h9.5c-4.49 7.92-8.22 15.57-12.5 23.6a11.2 11.2 0 0 0-2 6.4v5a10 10 0 0 0 10 10ZM32.5 118c1 2 3.5 5 6 5 4.5 0 6.5-4 6.5-9s-2-9.5-6.5-9.5c-2.5 0-4 2.5-5.5 4-.5.5-1 0-.5-.5 1.5-1.5 4-5.5 4-9 0-4-2.5-9-6.5-9s-6.5 5-6.5 9c0 3.5 2.5 7.5 4 9 .5.5 0 1-.5.5-1.5-1.5-3-4-5.5-4-4.5 0-6.5 4.5-6.5 9.5s2 9 6.5 9c2.5 0 5-3 6-5 .5-.5.5 0 .5.5-.5 4-.5 5-1 8s-2 8.5-2 8.5a17 17 0 0 1 10 0s-1.5-5.5-2-8.5-.5-4-1-8c0-.5 0-1 .5-.5Zm300 304c1-2 3.5-5 6-5 4.5 0 6.5 4 6.5 9s-2 9.5-6.5 9.5c-2.5 0-4-2.5-5.5-4-.5-.5-1 0-.5.5 1.5 1.5 4 5.5 4 9 0 4-2.5 9-6.5 9s-6.5-5-6.5-9c0-3.5 2.5-7.5 4-9 .5-.5 0-1-.5-.5-1.5 1.5-3 4-5.5 4-4.5 0-6.5-4.5-6.5-9.5s2-9 6.5-9c2.5 0 5 3 6 5 .5.5.5 0 .5-.5-.5-4-.5-5-1-8s-2-8.5-2-8.5a17 17 0 0 0 10 0s-1.5 5.5-2 8.5-.5 4-1 8c0 .5 0 1 .5.5ZM185 101c2 4 7 10 12 10 9 0 13-8 13-18s-4-19-13-19c-5 0-8 5-11 8-1 1-2 0-1-1 3-3 8-11 8-18 0-8-5-18-13-18s-13 10-13 18c0 7 5 15 8 18 1 1 0 2-1 1-3-3-6-8-11-8-9 0-13 9-13 19s4 18 13 18c5 0 10-6 12-10 1-1 1 0 1 1-1 8-1 10-2 16s-4 17-4 17c5-2 15-2 20 0 0 0-3-11-4-17s-1-8-2-16c0-1 0-2 1-1Zm0 338c2-4 7-10 12-10 9 0 13 8 13 18s-4 19-13 19c-5 0-8-5-11-8-1-1-2 0-1 1 3 3 8 11 8 18 0 8-5 18-13 18s-13-10-13-18c0-7 5-15 8-18 1-1 0-2-1-1-3 3-6 8-11 8-9 0-13-9-13-19s4-18 13-18c5 0 10 6 12 10 1 1 1 0 1-1-1-8-1-10-2-16s-4-17-4-17c5 2 15 2 20 0 0 0-3 11-4 17s-1 8-2 16c0 1 0 2 1 1Z"/></g></svg>