<svg xmlns="http://www.w3.org/2000/svg" viewBox="0 0 360 540"><g data-name="1"><rect x=".5" y=".5" width="359" height="539" rx="29.94" style="fill:#fff;stroke:#000"/><path d="m15 30-5 7v7l5-7v43h5V30Zm20 0a10 10 0 0 0-10 10v30a10 10 0 0 0 20 0V40a10 10 0 0 0-10-10Zm0 5a5 5 0 0 1 5 5v30a5 5 0 0 1-10 0V40a5 5 0 0 1 5-5Zm310 475 5-7v-7l-5 7v-43h-5v50Zm-20 0a10 10 0 0 0 10-10v-30a10 10 0 0 0-20 0v30a10 10 0 0 0 10 10Zm0-5a5 5 0 0 1-5-5v-30a5 5 0 0 1 10 0v30a5 5 0 0 1-5 5ZM32.5 118c1 2 3.5 5 6 5 4.5 0 6.5-4 6.5-9s-2-9.5-6.5-9.5c-2.5 0-4 2.5-5.5 4-.5.5-1 0-.5-.5 1.5-1.5 4-5.5 4-9 0-4-2.5-9-6.5-9s-6.5 5-6.5 9c0 3.5 2.5 7.5 4 9 .5.5 0 1-.5.5-1.5-1.5-3-4-5.5-4-4.5 0-6.5 4.5-6.5 9.5s2 9 6.5 9c2.5 0 5-3 6-5 .5-.5.5 0 .5.5-.5 4-.5 5-1 8s-2 8.5-2 8.5a17 17 0 0 1 10 0s-1.5-5.5-2-8.5-.5-4-1-8c0-.5 0-1 .5-.5Zm300 304c1-2 3.5-5 6-5 4.5 0 6.5 4 6.5 9s-2 9.5-6.5 9.5c-2.5 0-4-2.5-5.5-4-.5-.5-1 0-.5.5 1.5 1.5 4 5.5 4 9 0 4-2.5 9-6.5 9s-6.5-5-6.5-9c0-3.5 2.5-7.5 4-9 .5-.5 0-1-.5-.5-1.5 1.5-3 4-5.5 4-4.5 0-6.5-4.5-6.5-9.5s2-9 6.5-9c2.5 0 5 3 6 5 .5.5.5 0 .5-.5-.5-4-.5-5-1-8s-2-8.5-2-8.5a17 17 0 0 0 10 0s-1.5 5.5-2 8.5-.5 4-1 8c0 .5 0 1 .5.5ZM95 101c2 4 7 10 12 10 9 0 13-8 13-18s-4-19-13-19c-5 0-8 5-11 8-1 1-2 0-1-1 3-3 8-11 8-18 0-8-5-18-13-18S77 55 77 63c0 7 5 15 8 18 1 1 0 2-1 1-3-3-6-8-11-8-9 0-13 9-13 19s4 18 13 18c5 0 10-6 12-10 1-1 1 0 1 1-1 8-1 10-2 16s-4 17-4 17c5-2 15-2 20 0 0 0-3-11-4-17s-1-8-2-16c0-1 0-2 1-1Zm180 0c2 4 7 10 12 10 9 0 13-8 13-18s-4-19-13-19c-5 0-8 5-11 8-1 1-2 0-1-1 3-3 8-11 8-18 0-8-5-18-13-18s-13 10-13 18c0 7 5 15 8 18 1 1 0 2-1 1-3-3-6-8-11-8-9 0-13 9-13 19s4 18 13 18c5 0 10-6 12-10 1-1 1 0 1 1-1 8-1 10-2 16s-4 17-4 17c5-2 15-2 20 0 0 0-3-11-4-17s-1-8-2-16c0-1 0-2 1-1Zm-90 60c2 4 7 10 12 10 9 0 13-8 13-18s-4-19-13-19c-5 0-8 5-11 8-1 1-2 0-1-1 3-3 8-11 8-18 0-8-5-18-13-18s-13 10-13 18c0 7 5 15 8 18 1 1 0 2-1 1-3-3-6-8-11-8-9 0-13 9-13 19s4 18 13 18c5 0 10-6 12-10 1-1 1 0 1 1-1 8-1 10-2 16s-4 17-4 17c5-2 15-2 20 0 0 0-3-11-4-17s-1-8-2-16c0-1 0-2 1-1Zm-90 60c2 4 7 10 12 10 9 0 13-8 13-18s-4-19-13-19c-5 0-8 5-11 8-1 1-2 0-1-1 3-3 8-11 8-18 0-8-5-18-13-18s-13 10-13 18c0 7 5 15 8 18 1 1 0 2-1 1-3-3-6-8-11-8-9 0-13 9-13 19s4 18 13 18c5 0 10-6 12-10 1-1 1 0 1 1-1 8-1 10-2 16s-4 17-4 17c5-2 15-2 20 0 0 0-3-11-4-17s-1-8-2-16c0-1 0-2 1-1Zm180 0c2 4 7 10 12 10 9 0 13-8 13-18s-4-19-13-19c-5 0-8 5-11 8-1 1-2 0-1-1 3-3 8-11 8-18 0-8-5-18-13-18s-13 10-13 18c0 7 5 15 8 18 1 1 0 2-1 1-3-3-6-8-11-8-9 0-13 9-13 19s4 18 13 18c5 0 10-6 12-10 1-1 1 0 1 1-1 8-1 10-2 16s-4 17-4 17c5-2 15-2 20 0 0 0-3-11-4-17s-1-8-2-16c0-1 0-2 1-1ZM95 319c2-4 7-10 12-10 9 0 13 8 13 18s-4 19-13 19c-5 0-8-5-11-8-1-1-2 0-1 1 3 3 8 11 8 18 0 8-5 18-13 18s-13-10-13-18c0-7 5-15 8-18 1-1 0-2-1-1-3 3-6 8-11 8-9 0-13-9-13-19s4-18 13-18c5 0 10 6 12 10 1 1 1 0 1-1-1-8-1-10-2-16s-4-17-4-17c5 2 15 2 20 0 0 0-3 11-4 17s-1 8-2 16c0 1 0 2 1 1Zm180 0c2-4 7-10 12-10 9 0 13 8 13 18s-4 19-13 19c-5 0-8-5-11-8-1-1-2 0-1 1 3 3 8 11 8 18 0 8-5 18-13 18s-13-10-13-18c0-7 5-15 8-18 1-1 0-2-1-1-3 3-6 8-11 8-9 0-13-9-13-19s4-18 13-18c5 0 10 6 12 10 1 1 1 0 1-1-1-8-1-10-2-16s-4-17-4-17c5 2 15 2 20 0 0 0-3 11-4 17s-1 8-2 16c0 1 0 2 1 1Zm-90 60c2-4 7-10 12-10 9 0 13 8 13 18s-4 19-13 19c-5 0-8-5-11-8-1-1-2 0-1 1 3 3 8 11 8 18 0 8-5 18-13 18s-13-10-13-18c0-7 5-15 8-18 1-1 0-2-1-1-3 3-6 8-11 8-9 0-13-9-13-19s4-18 13-18c5 0 10 6 12 10 1 1 1 0 1-1-1-8-1-10-2-16s-4-17-4-17c5 2 15 2 20 0 0 0-3 11-4 17s-1 8-2 16c0 1 0 2 1 1Zm-90 60c2-4 7-10 12-10 9 0 13 8 13 18s-4 19-13 19c-5 0-8-5-11-8-1-1-2 0-1 1 3 3 8 11 8 18 0 8-5 18-13 18s-13-10-13-18c0-7 5-15 8-18 1-1 0-2-1-1-3 3-6 8-11 8-9 0-13-9-13-19s4-18 13-18c5 0 10 6 12 10 1 1 1 0 1-1-1-8-1-10-2-16s-4-17-4-17c5 2 15 2 20 0 0 0-3 11-4 17s-1 8-2 16c0 1 0 2 1 1Zm180 0c2-4 7-10 12-10 9 0 13 8 13 18s-4 19-13 19c-5 0-8-5-11-8-1-1-2 0-1 1 3 3 8 11 8 18 0 8-5 18-13 18s-13-10-13-18c0-7 5-15 8-18 1-1 0-2-1-1-3 3-6 8-11 8-9 0-13-9-13-19s4-18 13-18c5 0 10 6 12 10 1 1 1 0 1-1-1-8-1-10-2-16s-4-17-4-17c5 2 15 2 20 0 0 0-3 11-4 17s-1 8-2 16c0 1 0 2 1 1Z"/></g></svg>