<svg xmlns="http://www.w3.org/2000/svg" viewBox="0 0 360 540"><defs><style>.cls-11{fill:#fff}.cls-12,.cls-13{stroke:#000}.cls-2,.cls-9{fill:#ff5}.cls-10,.cls-12,.cls-3,.cls-8{fill:none}.cls-10,.cls-11,.cls-3,.cls-5,.cls-7,.cls-8,.cls-9{stroke:#55a}.cls-11,.cls-12,.cls-13,.cls-3,.cls-5,.cls-7,.cls-8,.cls-9{stroke-width:1.98px}.cls-4,.cls-5{fill:#f55}.cls-10,.cls-11,.cls-12,.cls-13,.cls-5,.cls-7,.cls-8,.cls-9{stroke-linecap:round;stroke-linejoin:round}.cls-6,.cls-7{fill:#55a}.cls-10{stroke-width:2.06px}</style></defs><g id="2" data-name="1"><g id="svg2"><g id="g9009"><path id="path9011" d="M30.44.5h299.12a29.87 29.87 0 0 1 29.94 29.94v479.12a29.87 29.87 0 0 1-29.94 29.94H30.44A29.87 29.87 0 0 1 .5 509.56V30.44A29.87 29.87 0 0 1 30.44.5Z" style="stroke-width:.99px;stroke:#000;fill:#fff"/><path id="path9013" class="cls-2" d="m260.22 302.31-9.53.68-12.23-2.38-13.46-5.28-11.73-6.62-9-7.51-16.66-20.77-8.89-12.43-8.32-7.33-16.2-11.91-14-7.48-17.18-5.1-13.43-1.38-9.71-.18-11 3.26 11.19 19.67 9.53-.67 12.26 2.4 13.43 5.25 11.77 6.66 9 7.48 16.69 20.76 8.85 12.44 8.33 7.3 16.16 11.9 14 7.51 17.18 5.11 13.43 1.34 9.71.18 11.01-3.21Z"/><path id="path9015" class="cls-3" d="M60 30h270v360"/><path id="path9017" d="M30 30v5h5v35a5 5 0 0 1-10 0v-5h-5v5a10 10 0 0 0 20 0V30Z"/><path id="path9019" d="M330 510v-5h-5v-35a5 5 0 0 1 10 0v5h5v-5a10 10 0 0 0-20 0v40Z"/><path id="path9021" class="cls-2" d="M170.08 184.43 208 215.19l-.29 62.71-3.86 2.66-6.8-6.8-10.35-13.89-8.57-12.12-3.87-4.15-4.71-3.86Z"/><path id="path9023" class="cls-2" d="m222.17 293.28 24.83-18 2.38 4.75-21.3 16.87Z"/><path id="path9025" class="cls-2" d="m203.81 280 36.11-23.67L242 261l-33.73 22.21Z"/><path id="path9027" class="cls-4" d="m217.13 208.38-.32 63 24-15.7-3.87-17.68-2.66-17.15-.6-16 .32-8.58Z"/><path id="path9029" d="M207.67 283.25 242 260.47s2.41 6.09 3.55 9.18c.7 1.84 2.09 5.59 2.09 5.59l-25.47 18.36s-6.49-2.13-9.18-4.15c-2.2-1.63-5.32-6.2-5.32-6.2Z"/><path id="path9031" d="M148 167.74 207.25 215 234 198l-.25-14 .75-13.25.49-10.49-27.25 18.5-35-28.77-4.5-2.23-2.48-2.27-4-.5-2.27-3.26-3 .78-3-3.75h-3l-2.49-2.27Z"/><path id="path9033" d="m138 131.49-.25 89 6 2.23 5 2.77-.25-89.26-3.26-.5-3.24-3.25-2 .78Z"/><path id="path9035" class="cls-5" d="m260 208.24 20.23-10s3.9 11.05 6 16.51 4 11 6.74 16.23a64.33 64.33 0 0 0 6.23 10 104 104 0 0 0 8 8.22l-.2 78.56s-9.88-12-14-18.5c-3.58-5.7-6.31-11.94-9.25-18-3.83-7.94-7.9-15.77-11-24a167 167 0 0 1-5-17c-1.52-5.95-2.87-12-4-18-.81-4.39-1.31-8.85-2-13.25-.56-3.61-1.73-10.77-1.73-10.77Z"/><path id="path9037" class="cls-2" d="M263.76 149.49 291 164.23l-2.76 10.28 1 10 3 6.73-8 6-13.74 6-10.24 4.26-1-10v-12l.75-14 2.23-15.74Z"/><path id="path9039" class="cls-6" d="m226.49 296.75 22.75-17s4 8.69 6 13c1.63 3.44 5 10.24 5 10.24s-11.09.71-16.52-.25c-6-1.06-17.25-6-17.25-6Z"/><path id="path9041" d="m330 382.75-16.87-14.64.25-279.74 16.62-.11Z"/><path id="path9043" class="cls-6" d="m96 148.61.18 66.82-6.91 2.13s-11.2-15.63-16.94-23.35c-4.18-5.56-8.68-10.91-12.76-16.62-1-1.38-2.83-4.22-2.83-4.22s11.09-8.07 16.79-11.87c4.08-2.65 8.19-5.17 12.41-7.58C89.22 152 96 148.61 96 148.61Z"/><path id="path9045" d="m112.25 140.49-.35 74.23s-5.53-.28-8.29-.17-8.51.88-8.51.88l.18-66.82s6.31-3.41 9.53-4.93c2.45-1.17 7.44-3.19 7.44-3.19Z"/><path id="path9047" class="cls-2" d="M205.23 64.13c-7 .11-14.14-.1-21.19.36-5.88.35-11.73 1-17.5 1.91-3.83.6-7.54 1.6-11.34 2.3-.57 4.15-1.21 8.26-1.77 12.37-.61 4.68-1.1 9.32-1.74 14-.5 3.47-.78 7-1.6 10.41-.49 2.06-1.31 4-1.94 6l-2.66.35c-.89-.88-1.45-2.3-2.66-2.66a6.77 6.77 0 0 0-5 .89c-2.13 1.13-3.65 3.22-4.93 5.28a15.76 15.76 0 0 0-2.48 6.56 9.09 9.09 0 0 0 .71 4.42 5.09 5.09 0 0 0 2.17 2.68c1 .46 2.23 0 3.37 0a10.63 10.63 0 0 0 1.73 2.45c1.21 1 2.84 1.31 4.25 1.95.78.88 1.24 2.16 2.31 2.65.92.43 2 0 3 0 .88.82 1.52 2 2.66 2.48.92.36 2 0 3 0 1 1.17 1.6 2.91 3 3.55 1 .42 2.24-.15 3.37-.18.89 1.06 1.42 2.59 2.66 3.19 1 .46 2.23 0 3.36 0a28.69 28.69 0 0 0 3.33 2.8 16.73 16.73 0 0 0 4.61 1.95 12.59 12.59 0 0 0 5.14.35 12.76 12.76 0 0 0 5.14-2.3 17.48 17.48 0 0 0 4.21-4.57 31.09 31.09 0 0 0 3.55-7.8c1.59-4.92 2.09-10.1 3-15.2 1.17-6.63 2-13.32 3.19-20s2.41-13.22 3.68-19.78c1.1-5.49 2.27-11 3.37-16.44Z"/><path id="path9049" class="cls-5" d="m132 30 20 40s10.17-2.7 15.38-3.55A199.33 199.33 0 0 1 192 64a256.49 256.49 0 0 1 30 1c11.76 1.07 35 5 35 5l23-40Z"/><path id="path9051" class="cls-7" d="M146.83 31.46 162 61c6.48-2.27 11.41-2.34 19.7-3.26l-3.9-26.3h-5.74l5.11 22.75c-4.75.32-8.51.29-12.62 1.92l-11.12-24.65Z"/><path id="path9053" class="cls-7" d="m186.7 31.46 3 25.3c10.07-.92 18.15-1.48 28.21-.46l5.49-24.84H217l-3.05 19.81c-7.9-.46-12.57 0-19.2.5l-2.23-20.31Z"/><path id="path9055" class="cls-7" d="m233.26 31.46-7.34 25.06c7.37.63 18.08 1.59 26.08 3.48l13.71-28.53h-6.34L249 55c-4.47-1.2-12-1.73-16.48-2.37l6.24-21.16Z"/><path id="path9057" class="cls-8" d="M205 65s-3.48 16.66-5 25c-1.8 10-2.9 20.09-5 30-1.38 6.73-1.6 14-5 20-2.3 4.11-5.42 8.78-10 10s-10.2-.18-13.25-3.58c-2.55-2.87-3.08-7.8-1.74-11.41 1.42-3.93 5.28-8.33 9.46-8.19 4.36.15 9.18 4.89 9.25 9.22 0 3.9-4.18 8.25-8.08 8.5A5.85 5.85 0 0 1 170 140c-.39-2.8 2.16-6.84 5-6.81 1.7 0 4 2 2.94 4.15"/><path id="path9059" class="cls-8" d="M199.17 64.17c-2.94 9-3.69 18.07-5.24 27.18s-2 18.24-4.15 27.17c-1.7 7.09-3.61 14.64-6.8 20.77"/><path id="path9061" class="cls-8" d="M192.47 64.17c-2.23 7.79-2.9 16-4.14 24.09-1.21 7.87-1.63 15.88-3.16 23.67-1.1 5.67-1.91 11.34-4.32 16.69"/><path id="path9063" class="cls-8" d="M186.52 64.56c-2 7.44-2.59 15.34-3.69 23-1.06 7.51-1.45 15.2-2.79 22.64-1 5.39-1.71 10.84-3.87 16"/><path id="path9065" class="cls-8" d="M180.71 65.2c-1.81 7.08-2.34 14.56-3.33 21.89-1 7.13-1.31 14.39-2.52 21.48-.88 5.13-1.52 10.31-3.47 15.13"/><path id="path9067" class="cls-8" d="M175 65.73c-1.77 6.73-2.33 13.85-3.29 20.8-1 6.8-1.31 13.71-2.55 20.44-.89 4.89-1.53 9.78-3.47 14.39"/><path id="path9069" class="cls-8" d="M168.63 66.61c-1.74 6.31-2.13 12.58-3 18.85s-1.28 12.76-2.48 19c-.85 4.54-1.45 9.11-3.37 13.4"/><path id="path9071" class="cls-8" d="M162.46 67.54c-1.66 5.74-2.16 11.79-3.05 17.71s-1.2 11.66-2.3 17.4c-.81 4.15-1.42 8.33-3.19 12.26"/><path id="path9073" class="cls-8" d="M155.48 69.48c-1.42 5.14-1.84 10.21-2.59 15.35s-1 10.45-2 15.59c-.67 3.72-1.17 7.47-2.69 11"/><path id="path9075" class="cls-8" d="M175.43 127.2c-1.63-1.09-3.08-3.08-5-3.15-3.23-.11-6.42 2.06-8.51 4.47a13.84 13.84 0 0 0-3.33 9.67 9.14 9.14 0 0 0 3.3 6.55c.95.71 2 .54 3.58.68"/><path id="path9077" class="cls-8" d="M168.94 124c-1.34-1.49-2.37-2.66-4-2.76-3.23-.18-6.42 2-8.51 4.5a13.69 13.69 0 0 0-3.33 9.63c.14 2.45 1.21 5.28 3.3 6.56 1 .6 1.87.71 3.47-.07"/><path id="path9079" class="cls-8" d="M164.06 121c-1.63-1.09-3.09-3.08-5-3.15-3.22-.11-6.41 2.06-8.5 4.5a13.72 13.72 0 0 0-3.33 9.64c.14 2.44 1.2 5.24 3.29 6.55.89.57 1.63.61 3.19.07"/><path id="path9081" class="cls-8" d="M157.32 117.64c-1.24-1.77-2.48-2.66-4.14-2.77-3.19-.14-6.42 2.06-8.51 4.5a14.11 14.11 0 0 0-3.33 9.64 9 9 0 0 0 3.3 6.56c.92.63 1.63.85 3.36.46"/><path id="path9083" class="cls-8" d="M151.62 114.27a4.52 4.52 0 0 0-3.76-2.62c-3.19-.21-6.41 2-8.47 4.46a14 14 0 0 0-3.36 9.68 8.86 8.86 0 0 0 3.33 6.52c.74.56 1.17.25 2.73.39"/><path id="path9085" class="cls-8" d="M145.67 111.69a3.32 3.32 0 0 0-3.09-2.49c-3.19-.31-6.41 2-8.5 4.47a14.47 14.47 0 0 0-3.33 9.64 6.9 6.9 0 0 0 2 5c1.07 1 2.55 1 4.11 1.1"/><path id="path9087" class="cls-8" d="M256.78 70.48c-.85 10.17-1.45 20.3-2.51 30.43-.57 5.53-1.07 11.09-2 16.59-1.31 7.26-1.63 15-5 21.54a31 31 0 0 1-8.86 10 29.59 29.59 0 0 1-10.91 5.46 29 29 0 0 1-12.72.25c-4.15-.89-7.83-3.23-11.55-5.25-4.68-2.51-8.93-5.74-13.4-8.61"/><path id="path9089" class="cls-8" d="M203 83.87c3.93-1.13 7.76-2.76 11.8-3.4 2.62-.39 5.42-.92 8-.21 1.28.35 3.58 1.38 3.4 2.16-.1.39-.74.32-1.13.32-1.49 0-2.83-.93-4.32-1.14a29.63 29.63 0 0 0-6.59 0c-3.83.4-7.48 1.53-11.16 2.27Z"/><path id="path9091" class="cls-8" d="M225 92.16c.46-.49 1.74-.92 1.35-1.45-.46-.75-3.3-2.55-5.21-3.3a16.51 16.51 0 0 0-5.78-1 20.88 20.88 0 0 0-6.16.78 32.68 32.68 0 0 0-4 1.66"/><path id="path9093" class="cls-8" d="M200.8 93.44c3.33-.85 6.59-2.13 10-2.52a23.94 23.94 0 0 1 7.27.11 15.94 15.94 0 0 1 5.49 2.19 13.75 13.75 0 0 1 2.69 2.8 31.8 31.8 0 0 1-4.89 2.17 23.34 23.34 0 0 1-8.4.67 22.21 22.21 0 0 1-6.8-2.16 56.59 56.59 0 0 1-5.36-3.26Z"/><path id="path9095" class="cls-8" d="M209.2 92c.1 1.17-.32 2.48.24 3.51a6 6 0 0 0 3.41 2.49 5.43 5.43 0 0 0 3.29 0 5.07 5.07 0 0 0 2.38-2c.74-1.24.6-2.8.92-4.22"/><path id="path9097" class="cls-7" d="M213 92.76a1.29 1.29 0 0 0 .07 1.42 1.67 1.67 0 0 0 1.31.82 1.51 1.51 0 0 0 1.31-.75c.32-.46.5-1.24.11-1.63a2.3 2.3 0 0 0-2.8.14Z"/><path id="path9099" class="cls-7" d="M208.88 103.85a52.16 52.16 0 0 0 8.4-2c2.37-.92 4.64-2.69 6.69-3.64"/><path id="path9101" class="cls-8" d="M237.15 86.49a26.92 26.92 0 0 0-1.84 4.43c-.57 3.19-.14 6.52.25 9.78.46 4 1.91 7.83 2.59 11.8.42 2.27 1.45 4.64.92 6.91a6 6 0 0 1-1.92 2.83 19.32 19.32 0 0 1-3.65 2.17"/><path id="path9103" class="cls-8" d="M223.87 111.26c-1.56 1.7-3.83 2.94-4.68 5.1a4.43 4.43 0 0 0 0 3.3 4.64 4.64 0 0 0 3 2.48 4.74 4.74 0 0 0 3-.78c1.21-.64 1.88-2.06 3.09-2.62a3.67 3.67 0 0 1 2.83-.57c.28.11.64.5.57.78-.32 1-2 .78-2.94 1.13-1.32.5-2.59.92-3.87 1.38"/><path id="path9105" class="cls-7" d="M216.32 132.45c1.59-.82 3.86-.64 5.77-.6s3.9 1 5.85.88c2.23-.1 4.29-1.59 6.56-1.59a17.56 17.56 0 0 1 4.78 1.06 3.2 3.2 0 0 0 0 1.74c-1.63-.61-4-1.49-6-1.24s-3.29 2.44-5.24 2.48c-2.24.07-4-2.48-6.24-2.59s-4.43 1.63-6.13 2a4.08 4.08 0 0 0 .64-2.16Z"/><path id="path9107" class="cls-8" d="M220.25 139.39c1.6.68 3.08 1.7 4.79 2a10 10 0 0 0 3.86 0 12.33 12.33 0 0 0 2.44-.89c.75-.32 1.46-.71 2.2-1"/><path id="path9109" class="cls-8" d="M231.77 144.39a8.83 8.83 0 0 0-3.44-.92 6.91 6.91 0 0 0-2.83.81"/><path id="path9111" class="cls-7" d="M238.29 83.55c1.56-1.84 5-2.3 7.69-2.51a16.52 16.52 0 0 1 5.84.95 28.1 28.1 0 0 1 3.94 1.74c-2.17-.43-4.4-1.21-6.63-1.28a25.47 25.47 0 0 0-5.81.78 16 16 0 0 0-3.79 1.6c-.53.28-1.63-.83-1.24-1.28Z"/><path id="path9113" class="cls-8" d="M237.72 90.35a24.23 24.23 0 0 1 4.64-2.26 16.18 16.18 0 0 1 7.27-.57c1.59.28 2.94 1.35 4.43 2"/><path id="path9115" class="cls-8" d="M236.69 93.65a24.65 24.65 0 0 1 5.71-1.45 26.45 26.45 0 0 1 6.77-.07 10.43 10.43 0 0 1 3.83 1.09 10.85 10.85 0 0 1 1.8 1.78l-.36 2.73a15.26 15.26 0 0 1-8.71 1.45 17.73 17.73 0 0 1-5.46-.88 13.9 13.9 0 0 1-3.58-2.3c-.35-.32-.63-.68-.95-1 .32-.42.46-1.1.95-1.31Z"/><path id="path9117" class="cls-8" d="M241.09 92.91c.07 1.16-.32 2.48.24 3.5a5.91 5.91 0 0 0 3.41 2.52 5 5 0 0 0 3.29 0 4.81 4.81 0 0 0 2.38-2.06c.74-1.2.6-2.8.92-4.18"/><path id="path9119" class="cls-7" d="M244.56 93.76a1.28 1.28 0 0 0 .07 1.41 1.86 1.86 0 0 0 1.31.82 1.58 1.58 0 0 0 1.31-.75c.32-.46.5-1.27.11-1.66a2.29 2.29 0 0 0-2.8.18Z"/><path id="path9121" class="cls-8" d="M237.51 99.07a35 35 0 0 0 3.79 4.18 27.3 27.3 0 0 0 4 2.13"/><path id="path9123" class="cls-9" d="M253.56 108.6a23.59 23.59 0 0 0 2.62 7 17.26 17.26 0 0 0 4.78 5.63 9.11 9.11 0 0 0 5.57 1.74 6.82 6.82 0 0 0 4.75-2.41 8 8 0 0 0 1.16-5.28 7.75 7.75 0 0 0-1.66-4.64 5.94 5.94 0 0 0-3.86-2.06 3.76 3.76 0 0 0-2.94.78 3.11 3.11 0 0 0-.78 2.23c0 .85-.07 1.74 1 2.34-.78-.32-1.31-1.31-1.88-2a20.08 20.08 0 0 1-1.91-3.51 29.08 29.08 0 0 1-1.49-4.36c-.53-2-.92-4.11-1.35-6.13-.71-3.22-1.52-7.09-2.05-9.64-.57 5.53-1.35 14.78-1.95 20.34Z"/><path id="path9125" class="cls-9" d="M250.83 128.59a49.26 49.26 0 0 0 4.86 12.41 18.73 18.73 0 0 0 4.78 5.64c1.59 1.17 3.47 2.48 5.46 2.34a7.08 7.08 0 0 0 4.85-3 8.35 8.35 0 0 0 1.17-5.24 7.84 7.84 0 0 0-1.67-4.68 6.22 6.22 0 0 0-3.89-2.05 3.8 3.8 0 0 0-2.91.78 3 3 0 0 0-.78 2.23c.07.81 0 1.56 1.06 2.16a5.68 5.68 0 0 1-1.95-1.84 19.09 19.09 0 0 1-1.94-3.51c-.61-1.42-1-2.94-1.46-4.39-.53-1.74-1-3.51-1.56-5.25-1.17-4.11-3-9.71-3.5-12.26-.57 5.53-1.95 11.16-2.52 16.73Z"/><path id="path9127" class="cls-9" d="M248.6 136.42s.92 2.87 1.56 4.21c.74 1.53 2.62 4.36 2.62 4.36s3.22 1.45 4.89 2.06 4.75 1.45 4.75 1.45a41.84 41.84 0 0 1-5.14-4.68 25.73 25.73 0 0 1-3-5.24c-.81-1.77-1.38-3.69-2-5.56-.56-1.67-1.56-5.07-1.56-5.07s-.56 3.33-1 5c-.28 1.17-1.06 3.48-1.06 3.48Z"/><path id="path9129" class="cls-9" d="m252.78 145-6.8-3.9 2.62-4.74Z"/><path id="path9131" class="cls-9" d="m182.41 149.21 24.91 20.69 28.06-18.46-.67 9-27 18.6-35.11-29a13.24 13.24 0 0 0 9.81-.83Z"/><path id="path9133" class="cls-8" d="m112.25 158.53 9.36 10.59-9.18 9.71"/><path id="path9135" class="cls-8" d="m112.61 164.94 3.36 3.9-3.36 3.51"/><path id="path9137" class="cls-7" d="m125.5 146.52-9.35 9.7 9 9.89 9.11-9.89Zm-.17 4.18 5.35 5-5.35 5.88-5.18-5.17Z"/><path id="path9139" class="cls-9" d="m330 52-38 36h38Z"/><path id="path9141" class="cls-5" d="m330 60-23 22h23Z"/><path id="path9143" class="cls-8" d="m111.69 184.11 9.31 10.63-9.18 9.71"/><path id="path9145" class="cls-8" d="m112 190.56 3.37 3.86L112 198"/><path id="path9147" class="cls-8" d="m137.16 159.63-9.16 9.85 9.18 9.71"/><path id="path9149" class="cls-8" d="m137 165.3-3.36 3.89 3.36 3.51"/><path id="path9151" class="cls-8" d="m136.45 203.67-8.61-9.28 9.18-9.71"/><path id="path9153" class="cls-8" d="m136.84 198.57-3.33-3.87 3.33-3.54"/><path id="path9155" class="cls-7" d="m124.51 172.28-9.35 9.7 9 9.89 9.49-10.06Zm-.18 4.18 5.36 5-5.36 5.88-5.17-5.17Z"/><path id="path9157" class="cls-7" d="m124.9 197.65-9.32 9.7 9 9.43 9.68-9.21Zm-.14 4.18 5.35 5-5.35 5.88-5.21-5.13Z"/><path id="path9159" class="cls-8" d="m137.37 152.29-8.37-9.07 7.83-8.4"/><path id="path9161" class="cls-8" d="m137.23 147-3.36-3.51 2.76-3.33"/><path id="path9163" class="cls-8" d="m112.64 154.2 10-10.41-5.74-6.06"/><path id="path9165" class="cls-8" d="m113 147.79 3.36-3.9-3.36-3.54"/><path id="path9167" class="cls-5" d="m111.76 210.3 3.86 4.6"/><path id="path9169" class="cls-5" d="m137.48 210.08-7.09 7.3"/><path id="path9171" class="cls-5" d="m112.15 140.78-.57 73.87"/><path id="path9173" class="cls-5" d="m137.69 131.74-.21 88.41"/><path id="path9175" class="cls-7" d="m121.18 136.17 4.39 4.39 8.47-8.43-1.34-2.3Z"/><path id="path9177" class="cls-9" d="M307 88v71l6 2V88Z"/><path id="path9179" class="cls-9" d="M313 368V166h-6v204l23 20v-7Z"/><path id="path9181" class="cls-2" d="M321.48 90a2.5 2.5 0 1 0 2.52 2.52 2.79 2.79 0 0 0-2.52-2.52Z"/><path id="path9183" class="cls-2" d="M321.48 104a2.5 2.5 0 1 0 2.52 2.51 2.79 2.79 0 0 0-2.52-2.51Z"/><path id="path9185" class="cls-2" d="M324.5 97a2.79 2.79 0 0 0-2.5 2.5 2.82 2.82 0 0 0 2.5 2.5 2.85 2.85 0 0 0 2.5-2.5 2.82 2.82 0 0 0-2.5-2.5Z"/><path id="path9187" class="cls-2" d="M318.51 97a2.83 2.83 0 0 0-2.51 2.5 2.86 2.86 0 0 0 2.52 2.51A2.82 2.82 0 0 0 321 99.5a2.79 2.79 0 0 0-2.49-2.5Z"/><path id="path9189" class="cls-2" d="M321.66 138.76a2.5 2.5 0 1 0 2.48 2.51 2.79 2.79 0 0 0-2.48-2.51Z"/><path id="path9191" class="cls-2" d="M321.66 152.75a2.83 2.83 0 0 0-2.51 2.52 2.5 2.5 0 0 0 5 0 2.83 2.83 0 0 0-2.49-2.52Z"/><path id="path9193" class="cls-2" d="M324.64 145.77a2.5 2.5 0 1 0 2.51 2.48 2.79 2.79 0 0 0-2.51-2.48Z"/><path id="path9195" class="cls-2" d="M318.65 145.77a2.5 2.5 0 1 0 2.52 2.48 2.83 2.83 0 0 0-2.52-2.48Z"/><path id="path9197" class="cls-2" d="M321.45 187.55a2.5 2.5 0 0 0 0 5 2.5 2.5 0 1 0 0-5Z"/><path id="path9199" class="cls-2" d="M321.45 201.54a2.5 2.5 0 0 0 0 5 2.5 2.5 0 1 0 0-5Z"/><path id="path9201" class="cls-2" d="M324.46 194.53a2.86 2.86 0 0 0-2.52 2.51 2.83 2.83 0 0 0 2.52 2.48 2.79 2.79 0 0 0 2.48-2.48 2.82 2.82 0 0 0-2.48-2.51Z"/><path id="path9203" class="cls-2" d="M318.47 194.53A2.82 2.82 0 0 0 316 197a2.5 2.5 0 1 0 2.51-2.51Z"/><path id="path9205" class="cls-2" d="M321.27 237.08a2.5 2.5 0 1 0 2.48 2.48 2.79 2.79 0 0 0-2.48-2.48Z"/><path id="path9207" class="cls-2" d="M321.27 251.08a2.5 2.5 0 1 0 0 5 2.5 2.5 0 0 0 0-5Z"/><path id="path9209" class="cls-2" d="M324.25 244.06a2.52 2.52 0 1 0 2.51 2.52 2.83 2.83 0 0 0-2.51-2.52Z"/><path id="path9211" class="cls-2" d="M318.26 244.06a2.52 2.52 0 0 0 0 5 2.52 2.52 0 1 0 0-5Z"/><path id="path9213" class="cls-2" d="M321.27 285.48a2.83 2.83 0 0 0-2.51 2.48 2.86 2.86 0 0 0 2.51 2.52 2.83 2.83 0 0 0 2.48-2.52 2.8 2.8 0 0 0-2.48-2.48Z"/><path id="path9215" class="cls-2" d="M321.27 299.48a2.5 2.5 0 1 0 2.48 2.48 2.79 2.79 0 0 0-2.48-2.48Z"/><path id="path9217" class="cls-2" d="M324.25 292.46a2.5 2.5 0 1 0 2.51 2.52 2.8 2.8 0 0 0-2.51-2.52Z"/><path id="path9219" class="cls-2" d="M318.26 292.46a2.5 2.5 0 1 0 2.52 2.52 2.84 2.84 0 0 0-2.52-2.52Z"/><path id="path9221" class="cls-2" d="M320.7 334.06a2.5 2.5 0 1 0 2.49 2.48 2.79 2.79 0 0 0-2.49-2.48Z"/><path id="path9223" class="cls-2" d="M320.7 348.06a2.5 2.5 0 1 0 2.49 2.48 2.79 2.79 0 0 0-2.49-2.48Z"/><path id="path9225" class="cls-2" d="M323.68 341a2.83 2.83 0 0 0-2.48 2.52 2.79 2.79 0 0 0 2.48 2.48 2.83 2.83 0 0 0 2.52-2.48 2.87 2.87 0 0 0-2.52-2.52Z"/><path id="path9227" class="cls-2" d="M317.69 341a2.86 2.86 0 0 0-2.51 2.52 2.82 2.82 0 0 0 2.51 2.48 2.79 2.79 0 0 0 2.48-2.48 2.83 2.83 0 0 0-2.48-2.52Z"/><path id="path9229" class="cls-2" d="M315 127v-5l13-12v5Z"/><path id="path9231" class="cls-2" d="M315 135v-5l13-12v5Z"/><path id="path9233" class="cls-2" d="M315 177v-5l13-12v5Z"/><path id="path9235" class="cls-2" d="M315 185v-5l13-12v5Z"/><path id="path9237" class="cls-2" d="M315 227v-5l13-12v5Z"/><path id="path9239" class="cls-2" d="M315 235v-5l13-12v5Z"/><path id="path9241" class="cls-2" d="M315 275v-5l13-12v5Z"/><path id="path9243" class="cls-2" d="M315 283v-5l13-12v5Z"/><path id="path9245" class="cls-2" d="M315 322v-5l13-12v5Z"/><path id="path9247" class="cls-2" d="M315 330v-5l13-12v5Z"/><path id="path9249" class="cls-2" d="M315.14 368.26 315 367l13-12v5l-10 9.89Z"/><path id="path9251" class="cls-2" d="m321.73 373.5-2.37-2L328 363v5Z"/><path id="path9253" class="cls-7" d="m247.5 171-9.35 9.75 9 9.88 9.67-9.7Zm-.18 4.22 5.35 5-5.35 5.78-5.17-5.13Z"/><path id="path9255" class="cls-7" d="m251.22 143.47-10.52 8.47 7.69 10.95 10.8-8.4Zm-.67 4.14 4.64 5.64-6.06 5.14-4.46-5.78Z"/><path id="path9257" class="cls-7" d="m247.15 196.83-8.26 9.92 10 8.22 8.36-9.92Zm.28 3.9 5.85 4.07-4.68 6-5.71-4.26Z"/><path id="path9259" class="cls-7" d="m249.59 220.22-7.83 11 10.35 8.5 8.18-11Zm.46 4.18 6 4.14-4.42 6.59-5.89-4.32Z"/><path id="path9261" class="cls-7" d="m253.77 246-6 12.05 11.51 6.8 6.38-12.15Zm1.1 4 6.59 3.19-3.37 7.19-6.48-3.36Z"/><path id="path9263" class="cls-7" d="M261 271.42 256.15 284l12.11 5.67 5.21-12.67Zm1.48 3.93 6.84 2.55-2.66 7.48-6.76-2.73Z"/><path id="path9265" class="cls-7" d="m271.77 297.07-2.41 13.25 13 3.3 2.64-13.43Zm2.2 3.58 7.23 1.2-1.2 7.84-7.16-1.42Z"/><path id="path9267" class="cls-7" d="M285.24 320.78 284 334.2l13.22 2.17 1.52-13.65Zm2.48 3.4 7.3.56-.54 7.94-7.26-.81Z"/><path id="path9269" class="cls-8" d="M261.25 158.78 251 167l8.08 10"/><path id="path9271" class="cls-8" d="m260.47 164-3.76 3.3 2.94 3.61"/><path id="path9273" class="cls-8" d="M262.49 149.49s-1.45 12.33-2 18.5c-.74 8.57-1.84 17.15-1.77 25.76a202 202 0 0 0 2 22.5c1 8 2.2 15.91 4 23.74a233.9 233.9 0 0 0 7.47 25.76 214.79 214.79 0 0 0 9.57 22.25 243.29 243.29 0 0 0 12.72 22.75C298 316.35 306 327 306 327"/><path id="path9275" class="cls-8" d="m235 176.14 10.63-11.34-9.5-11.41"/><path id="path9277" class="cls-8" d="m235.45 169.62 4.54-4.75-4.18-5.17"/><path id="path9279" class="cls-8" d="m258.52 184.57-8.52 8.22 7.9 8.68"/><path id="path9281" class="cls-8" d="m258.2 189.43-3.15 3.26 2.9 3.15"/><path id="path9283" class="cls-8" d="m234.07 206 10.24-11.69-9.85-11.09"/><path id="path9285" class="cls-8" d="m234.28 199.52 4.36-4.92-4.36-5"/><path id="path9287" class="cls-8" d="m236.83 231.34 9-12.68-10.91-10"/><path id="path9289" class="cls-8" d="m236.37 224.82 3.83-5.31-4.85-4.57"/><path id="path9291" class="cls-8" d="M241.58 256.68 249 243l-12-8.69"/><path id="path9293" class="cls-8" d="m240.38 250.26 3.19-5.74-5.35-4"/><path id="path9295" class="cls-8" d="m252 282.76 5.31-14.64-13.18-6.77"/><path id="path9297" class="cls-8" d="m249.84 276.59 2.3-6.16-5.88-3.12"/><path id="path9299" class="cls-8" d="m264.54 309.22 3.55-15.16-13.93-5.14"/><path id="path9301" class="cls-8" d="m261.67 303.34 1.53-6.34-6.2-2.37"/><path id="path9303" class="cls-10" d="m279.32 333.35 2-15.41-13.2-3.94"/><path id="path9305" class="cls-10" d="m276.17 327.76.92-6.49-5.92-1.84"/><path id="path9307" class="cls-10" d="m297.21 356.7-.74-16.05-13.68-1.48"/><path id="path9309" class="cls-10" d="m293.14 351.07-.25-6.48-6.13-.75"/><path id="path9311" class="cls-8" d="M260.75 303.73c4 6.7 7.8 13.47 12 20 5.39 8.44 10.88 16.8 17 24.73 5.17 6.74 11 12.87 16.51 19.28"/><path id="path9313" class="cls-8" d="m300.76 360.25 5.74.74"/><path id="path9315" class="cls-7" d="m306.25 357-5.49-1.24.49-14.49 5 1.24Z"/><path id="path9317" class="cls-8" d="m302.24 323.26-1 13 5 1.24"/><path id="path9319" class="cls-8" d="m259.69 207.81-7.48 9.29 9 7.58"/><path id="path9321" class="cls-8" d="m260 212.7-2.73 3.65 3.26 2.77"/><path id="path9323" class="cls-8" d="m262 232.44-5.74 10.38 10.1 6"/><path id="path9325" class="cls-8" d="m263.13 237.19-2.06 4 3.69 2.16"/><path id="path9327" class="cls-8" d="m268.51 256.78-4.85 10.85 10.56 5.1"/><path id="path9329" class="cls-8" d="m270 261.46-1.71 4.18 3.87 1.84"/><path id="path9331" class="cls-8" d="m276.7 281.23-2.91 11.52 11.3 3.19"/><path id="path9333" class="cls-8" d="m279 285.56-1 4.44 4.15 1.14"/><path id="path9335" class="cls-8" d="m288.67 304.26-1.56 11.8 11.59 1.85"/><path id="path9337" class="cls-8" d="m291.47 308.3-.42 4.5 4.21.68"/><path id="path9339" class="cls-7" d="M281 198.5c3.19 8.75 5.82 17.71 9.54 26.25 2.33 5.39 4.6 10.92 8 15.73 2.23 3.19 5.35 5.67 8 8.51l-.25-14-4.5 1 2.51-6.23-5.77-.25 3.51-4.25-5.25-.5 3.26-4.5-5.77-.25 4-5-6.48-.5 3.75-5-5.77-.54 3.5-4.74-5-.75 3.26-5.49-7-.25Z"/><path id="path9341" class="cls-11" d="M292 164.23c2.34-2.51 6.2-3.15 9.5-4.18a16.27 16.27 0 0 1 5.49-1 11.59 11.59 0 0 1 6 1.74 4.19 4.19 0 0 1 2 2.76 2.94 2.94 0 0 1-1.24 2.23 5.35 5.35 0 0 1-2.27.75c-1.24.35-2.62.14-3.75.74a5.23 5.23 0 0 0-2.41 2.55 7.34 7.34 0 0 0-.11 4.11 14.61 14.61 0 0 0 1.77 4.29l-.25 14.28c-2.83.32-5.81 1.24-8.75 1-1.73-.14-3.68-.35-5-1.49-2.38-2.12-3-5.67-3.76-8.75a27.36 27.36 0 0 1-.5-9.74c.46-3.26 1-6.88 3.26-9.29Z"/><path id="path9343" class="cls-11" d="M260.75 207.5c4.5-1.85 8.08-3.37 12-5.25 3.37-1.63 6.7-3.44 10-5.24 3.11-1.7 6.73-3.58 9.24-5.25"/><path id="path9345" class="cls-11" d="M262.24 149.24c5.42 2.59 10.91 5.07 16.26 7.76 4.29 2.17 8.51 4.5 12.76 6.74"/><path id="path9347" class="cls-11" d="M286.51 161.5a85.58 85.58 0 0 0-2.76 11 41.86 41.86 0 0 0 0 11.51c.56 3.37 3.26 9.75 3.26 9.75L274.25 201l5.49-9-6-6 6.48-7.23-6-8.26 5.25-4.25-3.26-10Z"/><path id="path9349" class="cls-8" d="m264 151.26 7.48 12.23-6.48 6.27 6.24 8.5-6.48 8 5.74 5.74-7 13.5"/><path id="path9351" class="cls-8" d="m262.49 157.75 2.51 4-3.75 3"/><path id="path9353" class="cls-8" d="m260.5 174.76 3 3.75-3.26 4.25"/><path id="path9355" class="cls-8" d="m259.76 189.25 3.22 4.5-3.22 5"/><path id="path9357" class="cls-9" d="m266.74 213.73 11.26-5.49s3.4 11.45 5.49 17c1.77 4.75 3.47 9.6 6 14 2.94 5.07 10.52 14 10.52 14v52.26s-9.88-15.69-14-24A199.45 199.45 0 0 1 275 255a184.4 184.4 0 0 1-5.74-23.28c-1.14-5.91-2.52-17.99-2.52-17.99Z"/><path id="path9359" class="cls-9" d="M264.69 56.52s.67 7.29 2.3 10.48a22.57 22.57 0 0 0 7 7.76 21.35 21.35 0 0 0 8.26 3.48 25.68 25.68 0 0 0 7.48 0 43.33 43.33 0 0 0 5-1s-3.19-1-4.21-2.23c-2.24-2.55-2.56-6.27-3.51-9.49s-1.17-6.63-2.27-9.78-2.09-6.63-4.25-9.25a11.2 11.2 0 0 0-4.5-3.23 14 14 0 0 0-3.3-.53Z"/><path id="path9361" class="cls-8" d="M269.5 49.46c1.21 4 2.24 7.8 4.26 11.27a41.58 41.58 0 0 0 6.48 8c1.56 1.63 3.33 3 5 4.5"/><path id="path9363" class="cls-8" d="M278.11 52.62c-1.77 1-5.7.1-7.65-.29-1.35 2.66-2.44 4.72-2.34 7.2"/><path id="path9365" class="cls-8" d="M279.71 57.15c-1.77 1-5.1.68-7 .29-1.35 2.65-2.45 5.24-2.34 7.72"/><path id="path9367" class="cls-8" d="M282 63.32c-1.81 1-4.36.25-6.31-.14-1.35 2.65-1.06 5.06-1 7.54"/><path id="path9369" class="cls-8" d="M284.56 67.82c-1.77 1-2.9.07-4.85-.32-1.35 2.66-.64 3.69-.53 6.17"/><path id="path9371" class="cls-8" d="M270 48.37a9.13 9.13 0 0 0 5.31-.36"/><path id="path9373" class="cls-2" d="M149.92 141.59c-.85.32-1.95.89-2.06 1.81s.89 1.66 1.63 2.16a6.76 6.76 0 0 0 1.51.44c.53.18 1.24.25 1.59.75s.11 1.24.25 1.84c.42 1.49.6 3.26 1.73 4.29a6.46 6.46 0 0 0 3.87 1.27 16.14 16.14 0 0 0 3.47-.42 14.12 14.12 0 0 1 2.73-.32 2.75 2.75 0 0 1 1.31.39 1.9 1.9 0 0 1 .49 1.13 12.1 12.1 0 0 1 .11 2.63 15 15 0 0 0 .11 3.36 6.51 6.51 0 0 0 1.91 3.47 6.85 6.85 0 0 0 4 1.17 17 17 0 0 0 3.48-.63 10.88 10.88 0 0 1 2.65-.5 1.61 1.61 0 0 1 1.14.28c.18.14.18.46.21.68a11.6 11.6 0 0 1-.21 2.19 12.29 12.29 0 0 0-.25 3A6.29 6.29 0 0 0 181 174a7.22 7.22 0 0 0 3.79 1.63 20.23 20.23 0 0 0 3.55-.28c1.45 0 3.22-.75 4.36.18.88.7.56 2.16.77 3.26a16.89 16.89 0 0 0 .5 3 6.35 6.35 0 0 0 2.16 3 5 5 0 0 0 3 .53 10.44 10.44 0 0 0 2.2-.67c.6-.18 1.27-.78 1.87-.53.18.07.22.32.25.5a17 17 0 0 1 .6 1.87 7.09 7.09 0 0 0 1 2.38 4.42 4.42 0 0 0 3.08 1.81 4.54 4.54 0 0 0 3-1.81 6.94 6.94 0 0 0 .82-2.38c.21-.6.32-1.2.53-1.8.07-.11.07-.29.18-.32s.35 0 .53 0a13.27 13.27 0 0 1 1.7.71 10.5 10.5 0 0 0 2.41.85 5 5 0 0 0 3.3-.64 5.64 5.64 0 0 0 1.8-3.37 11.64 11.64 0 0 0-.1-3.11 10.72 10.72 0 0 1-.11-2.2c0-.18 0-.39.14-.5s.75-.14 1.1-.14a10.64 10.64 0 0 1 2.37.5c1.07.35 2 1.2 3.12 1.27s2.34 0 2.77-.85-.29-2-.93-2.73c-.95-1-2.48-1.09-3.75-1.48a12.16 12.16 0 0 0-3.33-.71 6.24 6.24 0 0 0-3.62.85 5.79 5.79 0 0 0-1.84 3.36 12.82 12.82 0 0 0 .07 3.09c0 .78.64 1.8.07 2.33s-1.24 0-1.84-.17c-.81-.22-1.52-.78-2.34-.92a5.77 5.77 0 0 0-3.22.21 6.08 6.08 0 0 0-2.16 2.41c-.39.67 0 2.16-.82 2.16s-.42-1.59-.81-2.3a5.13 5.13 0 0 0-2.2-2.45c-1.56-.64-3.37.43-5.07.39-.64 0-1.45.25-2-.18s-.21-1.52-.42-2.26c-.6-2.09-.6-4.72-2.3-6.06-1.95-1.56-4.89-1-7.37-1a25.57 25.57 0 0 1-2.7.25 1.91 1.91 0 0 1-1.27-.5 1.2 1.2 0 0 1-.25-.74 12 12 0 0 1 .25-2.23 14.47 14.47 0 0 0 .24-3 5.81 5.81 0 0 0-1.55-3.4 6.63 6.63 0 0 0-3.94-1.31 14.23 14.23 0 0 0-3.47.63 17.43 17.43 0 0 1-2.73.5 2.06 2.06 0 0 1-1.24-.25 2 2 0 0 1-.53-1.1 14.49 14.49 0 0 1-.07-2.55 16.06 16.06 0 0 0-.14-3.4 6.54 6.54 0 0 0-1.84-3.51 7 7 0 0 0-3.83-1.31 14.44 14.44 0 0 0-3.51.36 18.6 18.6 0 0 1-2.76.35c-.46 0-1.07 0-1.35-.35s-.14-1-.25-1.46c-.32-1.45-.35-3.12-1.31-4.28a7.49 7.49 0 0 0-3.33-1.88 11.87 11.87 0 0 0-1.95-.5 1.45 1.45 0 0 0-.35-.07Z"/><path id="path9375" class="cls-2" d="M150 153.14a2.15 2.15 0 0 0-1.87 1.38 2.09 2.09 0 0 0 .7 2.24L207 202.64a2.08 2.08 0 0 0 2.37 0l22.75-16a2 2 0 1 0-2.27-3.29l-21.57 15.13-57-45a2.13 2.13 0 0 0-1.28-.46Z"/><path id="path9377" d="M207.07 213.73v63.89l9.74-6.81.32-63.31Z"/><path id="path9379" class="cls-4" d="m148.5 167.88 21 16.87.29 54.42-21.3-14.49Z"/><path id="path9381" class="cls-12" d="m169.8 183.83.6 56.23"/><path id="path9383" class="cls-12" d="m175.71 188 .29 57.33"/><path id="path9385" class="cls-12" d="m202.64 210.76.29 68.35"/><path id="path9387" class="cls-8" d="m240.48 255.44-36.39 24.23"/><path id="path9389" class="cls-12" d="m202.61 269.75-26.33-26.86 26.5-25.65-26.78-27.5"/><path id="path9391" class="cls-12" d="m191.87 201.19-16.05 16.4 26.79 27.93-15.17 14.17"/><path id="path9393" class="cls-12" d="m189 211.43-4.93 5.28 4.93 5.81 5.1-5.28Z"/><path id="path9395" class="cls-12" d="m188.89 239.1-4.28 4.71 4.85 4.93 4.32-4.61Z"/><path id="path9397" class="cls-13" d="m176.88 197.68 4.89 5.35-5.14 5.42Z"/><path id="path9399" class="cls-13" d="m202.07 225.71-5.24 5.46 5.32 5.17Z"/><path id="path9401" class="cls-13" d="m176.6 225.67 4.82 5.25-4.93 4.53Z"/><path id="path9403" class="cls-13" d="m202.22 253.2-4.61 4.8 4.85 4.75Z"/><path id="path9405" class="cls-8" d="M132.94 129.51c-7.08 3.54-14.17 7.05-21.22 10.63-5.07 2.55-10.2 5-15.2 7.76-7.19 3.93-14.35 7.93-21.22 12.4-6.45 4.18-12.48 8.93-18.75 13.43 4.15 5.53 8.19 11.12 12.4 16.62 3.58 4.64 7.48 9.07 11 13.78 3.23 4.36 6.13 9 9.18 13.43a61.13 61.13 0 0 1 7.44-2.13 72.8 72.8 0 0 1 15.2-.35 92 92 0 0 1 12 1.77 93.72 93.72 0 0 1 12.72 3.15 80.59 80.59 0 0 1 12.36 5.67 124.19 124.19 0 0 1 13.08 8.47A106.49 106.49 0 0 1 175 244.77c3.87 3.86 6.95 8.43 10.28 12.76 3.61 4.75 6.84 9.81 10.59 14.49a97 97 0 0 0 8.13 9.18 81.81 81.81 0 0 0 13.11 10.59 75.77 75.77 0 0 0 14.14 6.73 66.42 66.42 0 0 0 14.49 4.26c4.89.7 9.88 0 14.84 0-2.72-5.57-5.63-11-8.14-16.62-3.12-7.09-6.06-14.25-8.47-21.58a193.15 193.15 0 0 1-5.67-20.87c-1.49-7.23-2.41-14.56-3.19-21.9-.57-5.53-.89-11.09-1.06-16.62-.18-6.13 0-12.26 0-18.39.07-5.77.14-11.55.35-17.32.25-6 .71-12 1.06-18"/><path id="path9407" class="cls-2" d="M189.92 355.57 152 324.81l.29-62.71 3.86-2.66 6.8 6.8 10.35 13.89 8.57 12.12 3.87 4.15 4.71 3.86Z"/><path id="path9409" class="cls-2" d="m137.83 246.72-24.83 18-2.38-4.72 21.3-16.87Z"/><path id="path9411" class="cls-2" d="m156.19 260-36.11 23.67L118 279l33.73-22.21Z"/><path id="path9413" class="cls-4" d="m142.87 331.62.32-63-24 15.7 3.87 17.68 2.66 17.15.6 16-.32 8.58Z"/><path id="path9415" d="M152.33 256.75 118 279.53s-2.41-6.09-3.55-9.18c-.7-1.84-2.09-5.59-2.09-5.59l25.44-18.36s6.49 2.13 9.18 4.15c2.2 1.63 5.32 6.2 5.32 6.2Z"/><path id="path9417" d="M212 372.26 152.75 325 126 342l.25 14-.75 13.25-.5 10.49 27.25-18.5 35 28.77 4.5 2.23 2.48 2.27 4 .5 2.27 3.26 3-.78 3 3.75h3l2.48 2.27Z"/><path id="path9419" d="m222 408.51.25-89-6-2.23-5-2.77.25 89.26 3.26.5 3.22 3.26 2-.78Z"/><path id="path9421" class="cls-5" d="m100 331.76-20.23 10s-3.9-11.05-6-16.51-4-11-6.74-16.23a61.68 61.68 0 0 0-6.27-10 98.82 98.82 0 0 0-8-8.22l.24-78.56s9.88 12 14 18.5c3.58 5.7 6.31 11.94 9.25 18 3.83 7.94 7.9 15.77 11 24a157.18 157.18 0 0 1 5 17c1.56 5.95 2.91 12 4 18 .81 4.39 1.31 8.85 2 13.25.57 3.61 1.75 10.77 1.75 10.77Z"/><path id="path9423" class="cls-2" d="M96.24 390.51 69 375.77l2.76-10.28-1-10-3-6.73 8-6 13.74-6 10.24-4.26 1 10v12l-.75 14-2.23 15.74Z"/><path id="path9425" class="cls-6" d="m133.51 243.25-22.75 17s-4-8.69-6-13c-1.63-3.44-5-10.24-5-10.24s11.09-.71 16.52.25c6 1.06 17.25 6 17.25 6Z"/><path id="path9427" d="m30 157.25 16.87 14.64-.25 279.74-16.62.11Z"/><path id="path9429" class="cls-6" d="m264 391.39-.18-66.82 6.91-2.13s11.2 15.63 16.94 23.35c4.18 5.56 8.68 10.91 12.76 16.62 1 1.38 2.83 4.22 2.83 4.22s-11.09 8.07-16.79 11.87c-4.08 2.65-8.19 5.17-12.41 7.58-3.28 1.92-10.06 5.31-10.06 5.31Z"/><path id="path9431" d="m247.75 399.51.35-74.23s5.53.28 8.29.17 8.51-.88 8.51-.88l-.18 66.82s-6.31 3.41-9.53 4.93c-2.45 1.17-7.44 3.19-7.44 3.19Z"/><path id="path9433" class="cls-2" d="M154.77 475.87c7-.11 14.14.1 21.19-.36 5.88-.35 11.73-1 17.5-1.91 3.83-.6 7.55-1.56 11.34-2.3.57-4.15 1.21-8.26 1.77-12.37.61-4.68 1.1-9.32 1.74-14 .5-3.47.78-7 1.6-10.41.49-2.06 1.31-4 1.94-6l2.66-.35c.89.88 1.45 2.3 2.66 2.66a6.77 6.77 0 0 0 5-.89c2.13-1.13 3.65-3.23 4.93-5.28a15.76 15.76 0 0 0 2.48-6.56 9.09 9.09 0 0 0-.71-4.42 5.09 5.09 0 0 0-2.17-2.68c-1-.46-2.23 0-3.37 0a10.63 10.63 0 0 0-1.73-2.45c-1.21-1-2.84-1.31-4.25-2-.78-.88-1.24-2.16-2.31-2.65-.92-.43-2 0-3 0-.88-.82-1.52-2-2.66-2.48-.92-.36-2 0-3 0-1-1.17-1.6-2.91-3-3.55-1-.42-2.24.15-3.37.18-.89-1.06-1.42-2.59-2.66-3.19-1-.46-2.23 0-3.36 0a28.69 28.69 0 0 0-3.33-2.8 16.73 16.73 0 0 0-4.61-2 12.59 12.59 0 0 0-5.14-.35 12.76 12.76 0 0 0-5.14 2.3 17.48 17.48 0 0 0-4.21 4.57 31.09 31.09 0 0 0-3.55 7.8c-1.59 4.92-2.09 10.1-3 15.2-1.17 6.63-2 13.32-3.19 20s-2.41 13.22-3.68 19.78c-1.1 5.49-2.27 11-3.37 16.44Z"/><path id="path9435" class="cls-5" d="m228 510-20-40s-10.17 2.7-15.38 3.55A199.33 199.33 0 0 1 168 476a256.49 256.49 0 0 1-30-1c-11.76-1.07-35-5-35-5l-23 40Z"/><path id="path9437" class="cls-7" d="M213.17 508.54 198 479c-6.48 2.27-11.41 2.34-19.7 3.26l3.9 26.3h5.74l-5.11-22.75c4.75-.32 8.51-.29 12.62-1.92l11.12 24.67Z"/><path id="path9439" class="cls-7" d="m173.3 508.54-3-25.3c-10.07.92-18.15 1.48-28.21.46l-5.49 24.84h6.4l3.05-19.81c7.9.46 12.57 0 19.2-.5l2.23 20.31Z"/><path id="path9441" class="cls-7" d="m126.74 508.54 7.34-25.06c-7.37-.63-18.07-1.55-26.08-3.47l-13.71 28.53h6.34L111 485c4.47 1.2 12 1.73 16.48 2.37l-6.24 21.16Z"/><path id="path9443" class="cls-8" d="M155 475s3.48-16.66 5-25c1.8-10 2.9-20.09 5-30 1.38-6.73 1.6-14 5-20 2.3-4.11 5.42-8.78 10-10s10.2.18 13.25 3.58c2.55 2.87 3.08 7.8 1.74 11.41-1.42 3.93-5.28 8.33-9.46 8.19-4.36-.15-9.18-4.89-9.25-9.22 0-3.9 4.18-8.25 8.08-8.5A5.85 5.85 0 0 1 190 400c.39 2.8-2.16 6.84-5 6.81-1.7 0-4-2-2.94-4.15"/><path id="path9445" class="cls-8" d="M160.83 475.83c2.94-9 3.69-18.07 5.24-27.18s2-18.24 4.15-27.17c1.7-7.09 3.61-14.64 6.8-20.77"/><path id="path9447" class="cls-8" d="M167.53 475.83c2.23-7.79 2.9-16.05 4.14-24.09 1.21-7.87 1.63-15.88 3.16-23.67 1.1-5.67 1.91-11.34 4.32-16.69"/><path id="path9449" class="cls-8" d="M173.48 475.44c2-7.44 2.59-15.34 3.69-23 1.06-7.51 1.45-15.2 2.79-22.64 1-5.39 1.71-10.84 3.87-15.95"/><path id="path9451" class="cls-8" d="M179.29 474.8c1.81-7.08 2.34-14.56 3.33-21.89 1-7.13 1.31-14.39 2.52-21.48.88-5.13 1.52-10.31 3.47-15.13"/><path id="path9453" class="cls-8" d="M185 474.27c1.77-6.73 2.33-13.85 3.29-20.8s1.31-13.71 2.55-20.44c.89-4.89 1.53-9.78 3.47-14.39"/><path id="path9455" class="cls-8" d="M191.37 473.39c1.74-6.31 2.13-12.58 3-18.85s1.28-12.76 2.48-19c.85-4.54 1.45-9.11 3.37-13.4"/><path id="path9457" class="cls-8" d="M197.54 472.46c1.66-5.74 2.16-11.79 3.05-17.71s1.2-11.66 2.3-17.4c.81-4.15 1.42-8.33 3.19-12.26"/><path id="path9459" class="cls-8" d="M204.52 470.52c1.42-5.14 1.84-10.21 2.59-15.35s1-10.45 2-15.59c.67-3.72 1.17-7.47 2.69-11"/><path id="path9461" class="cls-8" d="M184.57 412.8c1.63 1.13 3.08 3.08 5 3.15 3.23.11 6.42-2.06 8.51-4.47a13.84 13.84 0 0 0 3.33-9.67 9.14 9.14 0 0 0-3.3-6.55c-.95-.71-2-.54-3.58-.68"/><path id="path9463" class="cls-8" d="M191.06 416c1.34 1.49 2.37 2.66 4 2.76 3.23.18 6.42-2 8.51-4.5a13.69 13.69 0 0 0 3.33-9.63c-.14-2.45-1.21-5.28-3.3-6.56-1-.6-1.87-.71-3.47.07"/><path id="path9465" class="cls-8" d="M195.94 419c1.63 1.09 3.09 3.08 5 3.15 3.22.11 6.41-2.06 8.5-4.5a13.72 13.72 0 0 0 3.33-9.64c-.14-2.44-1.2-5.24-3.29-6.55-.89-.57-1.63-.61-3.19-.07"/><path id="path9467" class="cls-8" d="M202.68 422.36c1.24 1.77 2.48 2.66 4.14 2.77 3.19.14 6.42-2.06 8.51-4.5a14.11 14.11 0 0 0 3.33-9.64 9 9 0 0 0-3.3-6.56c-.92-.63-1.63-.85-3.36-.46"/><path id="path9469" class="cls-8" d="M208.38 425.73a4.52 4.52 0 0 0 3.76 2.62c3.19.21 6.41-2.05 8.47-4.46a14 14 0 0 0 3.36-9.68 8.86 8.86 0 0 0-3.33-6.52c-.74-.56-1.17-.25-2.73-.39"/><path id="path9471" class="cls-8" d="M214.33 428.31a3.32 3.32 0 0 0 3.09 2.49c3.19.31 6.41-2 8.5-4.47a14.47 14.47 0 0 0 3.33-9.64 6.9 6.9 0 0 0-2-5c-1.07-1-2.55-1-4.11-1.1"/><path id="path9473" class="cls-8" d="M103.22 469.52c.85-10.17 1.45-20.3 2.51-30.43.57-5.53 1.07-11.09 2-16.59 1.31-7.26 1.63-15 5-21.54a31 31 0 0 1 8.86-10 29.59 29.59 0 0 1 10.91-5.46 29 29 0 0 1 12.72-.25c4.15.89 7.83 3.23 11.55 5.25 4.68 2.51 8.93 5.74 13.4 8.61"/><path id="path9475" class="cls-8" d="M157 456.13c-3.93 1.13-7.76 2.76-11.8 3.4-2.62.39-5.42.92-8 .21-1.28-.35-3.58-1.38-3.4-2.16.1-.39.74-.32 1.13-.32 1.49 0 2.83.93 4.32 1.14a29.63 29.63 0 0 0 6.59 0c3.76-.39 7.41-1.53 11.13-2.27Z"/><path id="path9477" class="cls-8" d="M135 447.84c-.46.49-1.74.92-1.35 1.45.46.75 3.3 2.55 5.21 3.3a16.51 16.51 0 0 0 5.78 1 20.88 20.88 0 0 0 6.16-.78 32.68 32.68 0 0 0 4-1.66"/><path id="path9479" class="cls-8" d="M159.2 446.56c-3.33.85-6.59 2.13-10 2.52a23.94 23.94 0 0 1-7.27-.11 15.94 15.94 0 0 1-5.49-2.19 13.75 13.75 0 0 1-2.69-2.8 31.8 31.8 0 0 1 4.89-2.17 23.34 23.34 0 0 1 8.4-.67 22.21 22.21 0 0 1 6.8 2.16 56.59 56.59 0 0 1 5.36 3.26Z"/><path id="path9481" class="cls-8" d="M150.8 448.05c-.1-1.17.32-2.48-.24-3.51a6 6 0 0 0-3.41-2.51 5.43 5.43 0 0 0-3.29 0 5.07 5.07 0 0 0-2.38 2.05c-.74 1.24-.6 2.8-.92 4.22"/><path id="path9483" class="cls-7" d="M147 447.24a1.29 1.29 0 0 0-.07-1.42 1.67 1.67 0 0 0-1.31-.82 1.51 1.51 0 0 0-1.31.75c-.32.46-.5 1.24-.11 1.63a2.3 2.3 0 0 0 2.8-.14Z"/><path id="path9485" class="cls-7" d="M151.12 436.15a52.16 52.16 0 0 0-8.4 2c-2.37.92-4.64 2.69-6.69 3.64"/><path id="path9487" class="cls-8" d="M122.85 453.51a26.92 26.92 0 0 0 1.84-4.43c.57-3.19.14-6.52-.25-9.78-.46-4-1.91-7.83-2.59-11.8-.42-2.27-1.45-4.64-.92-6.91a6 6 0 0 1 1.92-2.83 19.32 19.32 0 0 1 3.65-2.17"/><path id="path9489" class="cls-8" d="M136.13 428.74c1.56-1.7 3.83-2.94 4.68-5.1a4.43 4.43 0 0 0 0-3.3 4.64 4.64 0 0 0-3-2.48 4.74 4.74 0 0 0-3 .78c-1.21.64-1.88 2.06-3.09 2.62a3.67 3.67 0 0 1-2.83.57c-.28-.11-.64-.5-.57-.78.32-1 2-.78 2.94-1.13 1.32-.5 2.59-.92 3.87-1.38"/><path id="path9491" class="cls-7" d="M143.68 407.55c-1.59.82-3.86.64-5.77.6s-3.9-.95-5.85-.88c-2.23.1-4.29 1.59-6.56 1.59a17.56 17.56 0 0 1-4.78-1.06 3.2 3.2 0 0 0 0-1.74c1.63.61 4 1.49 6 1.24s3.29-2.44 5.24-2.48c2.24-.07 4 2.48 6.24 2.59s4.43-1.63 6.13-2a4.08 4.08 0 0 0-.64 2.16Z"/><path id="path9493" class="cls-8" d="M139.75 400.61c-1.6-.68-3.08-1.7-4.79-2a10 10 0 0 0-3.86 0 12.33 12.33 0 0 0-2.44.89c-.75.32-1.46.71-2.2 1"/><path id="path9495" class="cls-8" d="M128.23 395.61a8.83 8.83 0 0 0 3.44.92 6.91 6.91 0 0 0 2.83-.81"/><path id="path9497" class="cls-7" d="M121.71 456.45c-1.56 1.84-5 2.3-7.69 2.51a16.52 16.52 0 0 1-5.84-.95 28.1 28.1 0 0 1-3.94-1.74c2.17.43 4.4 1.21 6.63 1.28a25.47 25.47 0 0 0 5.81-.78 16 16 0 0 0 3.79-1.6c.5-.28 1.63.82 1.24 1.28Z"/><path id="path9499" class="cls-8" d="M122.28 449.65a24.23 24.23 0 0 1-4.64 2.26 16.18 16.18 0 0 1-7.27.57c-1.59-.28-2.94-1.35-4.43-2"/><path id="path9501" class="cls-8" d="M123.31 446.35a24.65 24.65 0 0 1-5.71 1.45 26.45 26.45 0 0 1-6.77.07 10.43 10.43 0 0 1-3.86-1.09 10.85 10.85 0 0 1-1.77-1.78l.36-2.73a21.24 21.24 0 0 1 3.57-1.24 20.55 20.55 0 0 1 5.14-.21 17.73 17.73 0 0 1 5.46.88 13.9 13.9 0 0 1 3.58 2.34c.35.32.63.68 1 1-.32.42-.46 1.1-1 1.31Z"/><path id="path9503" class="cls-8" d="M118.91 447.09c-.07-1.16.32-2.48-.24-3.5a5.91 5.91 0 0 0-3.41-2.52 5 5 0 0 0-3.29 0 4.81 4.81 0 0 0-2.38 2.06c-.74 1.2-.6 2.8-.92 4.18"/><path id="path9505" class="cls-7" d="M115.44 446.24a1.28 1.28 0 0 0-.07-1.41 1.86 1.86 0 0 0-1.31-.82 1.58 1.58 0 0 0-1.31.75c-.32.46-.5 1.27-.11 1.66a2.29 2.29 0 0 0 2.8-.18Z"/><path id="path9507" class="cls-8" d="M122.49 440.93a35 35 0 0 0-3.79-4.18 27.3 27.3 0 0 0-4-2.13"/><path id="path9509" class="cls-9" d="M106.44 431.4a23.59 23.59 0 0 0-2.62-7 17.26 17.26 0 0 0-4.82-5.65 9.11 9.11 0 0 0-5.53-1.75 6.82 6.82 0 0 0-4.75 2.41 8 8 0 0 0-1.16 5.28 7.75 7.75 0 0 0 1.66 4.64 5.94 5.94 0 0 0 3.86 2.06 3.76 3.76 0 0 0 2.94-.78 3.11 3.11 0 0 0 .78-2.23c0-.85.07-1.74-1-2.34.78.32 1.31 1.31 1.88 2.05a20.08 20.08 0 0 1 1.91 3.51 29.08 29.08 0 0 1 1.49 4.36c.53 2 .92 4.11 1.35 6.13.71 3.22 1.52 7.09 2 9.64.63-5.52 1.41-14.73 2.01-20.33Z"/><path id="path9511" class="cls-9" d="M109.17 411.41a49.26 49.26 0 0 0-4.86-12.36 18.73 18.73 0 0 0-4.78-5.64c-1.59-1.17-3.47-2.48-5.46-2.34a7.08 7.08 0 0 0-4.85 3 8.35 8.35 0 0 0-1.17 5.24 7.84 7.84 0 0 0 1.67 4.69 6.22 6.22 0 0 0 3.89 2.05 3.8 3.8 0 0 0 2.91-.78 3 3 0 0 0 .78-2.23c-.07-.81 0-1.56-1.06-2.16a5.68 5.68 0 0 1 2 1.84 19.09 19.09 0 0 1 1.94 3.51c.61 1.42 1 2.94 1.46 4.39.53 1.74 1 3.51 1.56 5.25 1.16 4.11 3 9.71 3.5 12.26.57-5.53 1.95-11.16 2.52-16.73Z"/><path id="path9513" class="cls-9" d="M111.4 403.58s-.92-2.87-1.56-4.21c-.74-1.53-2.62-4.36-2.62-4.36s-3.22-1.45-4.89-2.06-4.75-1.45-4.75-1.45a41.84 41.84 0 0 1 5.14 4.68 25.73 25.73 0 0 1 3 5.24c.81 1.77 1.38 3.69 2 5.56.56 1.67 1.56 5.07 1.56 5.07s.56-3.33 1-5c.28-1.17 1.06-3.48 1.06-3.48Z"/><path id="path9515" class="cls-9" d="m107.22 395 6.8 3.9-2.62 4.74Z"/><path id="path9517" class="cls-9" d="m177.59 390.79-24.91-20.69-28.06 18.46.67-9 27-18.6 35.11 29a13.24 13.24 0 0 0-9.85.81Z"/><path id="path9519" class="cls-8" d="m247.75 381.47-9.36-10.59 9.18-9.71"/><path id="path9521" class="cls-8" d="m247.39 375.06-3.36-3.9 3.36-3.51"/><path id="path9523" class="cls-7" d="m234.5 393.48 9.35-9.7-9-9.89-9.11 9.89Zm.17-4.18-5.35-5 5.35-5.88 5.18 5.17Z"/><path id="path9525" class="cls-9" d="m30 488 38-36H30Z"/><path id="path9527" class="cls-5" d="m30 480 23-22H30Z"/><path id="path9529" class="cls-8" d="M248.31 355.89 239 345.26l9.18-9.71"/><path id="path9531" class="cls-8" d="m248 349.44-3.37-3.86L248 342"/><path id="path9533" class="cls-8" d="m222.84 380.37 9.18-9.85-9.18-9.71"/><path id="path9535" class="cls-8" d="m223 374.7 3.36-3.89-3.36-3.51"/><path id="path9537" class="cls-8" d="m223.55 336.33 8.61 9.28-9.16 9.71"/><path id="path9539" class="cls-8" d="m223.16 341.43 3.33 3.87-3.33 3.54"/><path id="path9541" class="cls-7" d="m235.49 367.72 9.35-9.7-9-9.89-9.49 10.06Zm.18-4.18-5.36-5 5.36-5.88 5.17 5.17Z"/><path id="path9543" class="cls-7" d="m235.1 342.35 9.32-9.7-9-9.57-9.68 9.35Zm.14-4.18-5.35-5 5.35-5.88 5.21 5.13Z"/><path id="path9545" class="cls-8" d="m222.63 387.71 8.39 9.07-7.83 8.4"/><path id="path9547" class="cls-8" d="m222.77 393 3.36 3.51-2.76 3.33"/><path id="path9549" class="cls-8" d="m247.36 385.8-10 10.41 5.74 6.06"/><path id="path9551" class="cls-8" d="m247 392.21-3.36 3.9 3.36 3.54"/><path id="path9553" class="cls-5" d="m248.24 329.7-3.86-4.6"/><path id="path9555" class="cls-5" d="m222.52 329.92 7.09-7.3"/><path id="path9557" class="cls-5" d="m247.85 399.22.68-74.12"/><path id="path9559" class="cls-5" d="m222.31 408.26.21-88.9"/><path id="path9561" class="cls-7" d="m238.82 403.83-4.39-4.39-8.43 8.43 1.34 2.3Z"/><path id="path9563" class="cls-9" d="M53 452v-71l-6-2v73Z"/><path id="path9565" class="cls-9" d="M47 172v202h6V170l-23-20v7Z"/><path id="path9567" class="cls-2" d="M38.52 450a2.5 2.5 0 0 0 0-5 2.5 2.5 0 1 0 0 5Z"/><path id="path9569" class="cls-2" d="M38.52 436a2.5 2.5 0 0 0 0-5 2.5 2.5 0 1 0 0 5Z"/><path id="path9571" class="cls-2" d="M35.5 443a2.79 2.79 0 0 0 2.5-2.5 2.82 2.82 0 0 0-2.5-2.5 2.85 2.85 0 0 0-2.5 2.5 2.82 2.82 0 0 0 2.5 2.5Z"/><path id="path9573" class="cls-2" d="M41.49 443a2.83 2.83 0 0 0 2.51-2.5 2.86 2.86 0 0 0-2.51-2.5 2.82 2.82 0 0 0-2.49 2.5 2.79 2.79 0 0 0 2.49 2.5Z"/><path id="path9575" class="cls-2" d="M38.34 401.24a2.5 2.5 0 1 0 0-5 2.5 2.5 0 0 0 0 5Z"/><path id="path9577" class="cls-2" d="M38.34 387.25a2.83 2.83 0 0 0 2.51-2.52 2.79 2.79 0 0 0-2.51-2.48 2.79 2.79 0 0 0-2.48 2.48 2.83 2.83 0 0 0 2.48 2.52Z"/><path id="path9579" class="cls-2" d="M35.36 394.23a2.5 2.5 0 0 0 0-5 2.5 2.5 0 1 0 0 5Z"/><path id="path9581" class="cls-2" d="M41.35 394.23a2.5 2.5 0 1 0 0-5 2.5 2.5 0 1 0 0 5Z"/><path id="path9583" class="cls-2" d="M38.55 352.45a2.5 2.5 0 0 0 0-5 2.5 2.5 0 1 0 0 5Z"/><path id="path9585" class="cls-2" d="M38.55 338.46a2.5 2.5 0 0 0 0-5 2.5 2.5 0 1 0 0 5Z"/><path id="path9587" class="cls-2" d="M35.54 345.47a2.86 2.86 0 0 0 2.52-2.47 2.83 2.83 0 0 0-2.52-2.48 2.79 2.79 0 0 0-2.48 2.48 2.82 2.82 0 0 0 2.48 2.47Z"/><path id="path9589" class="cls-2" d="M41.53 345.47A2.82 2.82 0 0 0 44 343a2.79 2.79 0 0 0-2.51-2.48 2.79 2.79 0 0 0-2.44 2.48 2.82 2.82 0 0 0 2.48 2.47Z"/><path id="path9591" class="cls-2" d="M38.73 302.92a2.5 2.5 0 1 0 0-5 2.5 2.5 0 0 0 0 5Z"/><path id="path9593" class="cls-2" d="M38.73 288.92a2.5 2.5 0 1 0 0-5 2.5 2.5 0 0 0 0 5Z"/><path id="path9595" class="cls-2" d="M35.75 295.94a2.52 2.52 0 0 0 0-5 2.52 2.52 0 0 0 0 5Z"/><path id="path9597" class="cls-2" d="M41.74 295.94a2.52 2.52 0 0 0 0-5 2.52 2.52 0 1 0 0 5Z"/><path id="path9599" class="cls-2" d="M38.73 254.52a2.83 2.83 0 0 0 2.51-2.52 2.86 2.86 0 0 0-2.51-2.52 2.83 2.83 0 0 0-2.48 2.52 2.8 2.8 0 0 0 2.48 2.52Z"/><path id="path9601" class="cls-2" d="M38.73 240.52a2.5 2.5 0 1 0 0-5 2.5 2.5 0 0 0 0 5Z"/><path id="path9603" class="cls-2" d="M35.75 247.54a2.5 2.5 0 0 0 0-5 2.5 2.5 0 1 0 0 5Z"/><path id="path9605" class="cls-2" d="M41.74 247.54a2.5 2.5 0 0 0 0-5 2.5 2.5 0 1 0 0 5Z"/><path id="path9607" class="cls-2" d="M39.3 205.94a2.5 2.5 0 1 0 0-5 2.5 2.5 0 0 0 0 5Z"/><path id="path9609" class="cls-2" d="M39.3 191.94a2.5 2.5 0 1 0 0-5 2.5 2.5 0 0 0 0 5Z"/><path id="path9611" class="cls-2" d="M36.32 199a2.83 2.83 0 0 0 2.48-2.52 2.79 2.79 0 0 0-2.48-2.48 2.83 2.83 0 0 0-2.52 2.48 2.87 2.87 0 0 0 2.52 2.52Z"/><path id="path9613" class="cls-2" d="M42.31 199a2.86 2.86 0 0 0 2.51-2.52 2.82 2.82 0 0 0-2.51-2.48 2.79 2.79 0 0 0-2.48 2.48 2.83 2.83 0 0 0 2.48 2.52Z"/><path id="path9615" class="cls-2" d="M45 413v5l-13 12v-5Z"/><path id="path9617" class="cls-2" d="M45 405v5l-13 12v-5Z"/><path id="path9619" class="cls-2" d="M45 363v5l-13 12v-5Z"/><path id="path9621" class="cls-2" d="M45 355v5l-13 12v-5Z"/><path id="path9623" class="cls-2" d="M45 313v5l-13 12v-5Z"/><path id="path9625" class="cls-2" d="M45 305v5l-13 12v-5Z"/><path id="path9627" class="cls-2" d="M45 265v5l-13 12v-5Z"/><path id="path9629" class="cls-2" d="M45 257v5l-13 12v-5Z"/><path id="path9631" class="cls-2" d="M45 218v5l-13 12v-5Z"/><path id="path9633" class="cls-2" d="M45 210v5l-13 12v-5Z"/><path id="path9635" class="cls-2" d="M44.86 171.74 45 173l-13 12v-5l10-9.89Z"/><path id="path9637" class="cls-2" d="m38.23 166.5 2.41 2L32 177v-5Z"/><path id="path9639" class="cls-7" d="m112.5 369 9.35-9.75-9-9.88-9.67 9.7Zm.18-4.22-5.35-5 5.35-5.84 5.17 5.13Z"/><path id="path9641" class="cls-7" d="m108.78 396.53 10.52-8.47-7.69-10.95-10.8 8.4Zm.67-4.14-4.64-5.64 6.06-5.14 4.46 5.78Z"/><path id="path9643" class="cls-7" d="m112.85 343.17 8.26-9.92-10-8.22-8.39 9.97Zm-.28-3.9-5.85-4.07 4.68-6 5.71 4.26Z"/><path id="path9645" class="cls-7" d="m110.41 319.78 7.83-11-10.35-8.5-8.18 11Zm-.41-4.18-6-4.14 4.42-6.59 5.89 4.32Z"/><path id="path9647" class="cls-7" d="m106.23 294 6-12.05-11.51-6.8-6.38 12.15Zm-1.1-4-6.59-3.19 3.37-7.19 6.48 3.36Z"/><path id="path9649" class="cls-7" d="m99 268.58 4.85-12.58-12.11-5.67L86.53 263Zm-1.48-3.93-6.84-2.55 2.66-7.48 6.76 2.73Z"/><path id="path9651" class="cls-7" d="m88.23 242.93 2.41-13.25-13-3.3L75 239.81ZM86 239.35l-7.23-1.2 1.23-7.84 7.16 1.42Z"/><path id="path9653" class="cls-7" d="M74.76 219.22 76 205.8l-13.22-2.17-1.48 13.65Zm-2.48-3.4-7.3-.56.54-7.94 7.26.81Z"/><path id="path9655" class="cls-8" d="M98.75 381.22 109 373l-8.08-10"/><path id="path9657" class="cls-8" d="m99.53 376 3.76-3.3-2.94-3.61"/><path id="path9659" class="cls-8" d="M97.51 390.51s1.45-12.33 2-18.5c.74-8.57 1.84-17.15 1.73-25.76a192.81 192.81 0 0 0-2-22.5c-1-8-2.2-15.91-4-23.74a225.67 225.67 0 0 0-7.51-25.76A206.19 206.19 0 0 0 78.24 252a243.29 243.29 0 0 0-12.72-22.75C62 223.65 54 213 54 213"/><path id="path9661" class="cls-8" d="m125 363.86-10.66 11.34 9.5 11.41"/><path id="path9663" class="cls-8" d="m124.55 370.38-4.55 4.75 4.18 5.17"/><path id="path9665" class="cls-8" d="m101.48 355.43 8.54-8.22-7.9-8.68"/><path id="path9667" class="cls-8" d="m101.8 350.57 3.15-3.26-2.9-3.15"/><path id="path9669" class="cls-8" d="m125.93 334-10.24 11.69 9.85 11.09"/><path id="path9671" class="cls-8" d="m125.72 340.48-4.36 4.92 4.36 5"/><path id="path9673" class="cls-8" d="m123.17 308.66-9 12.68 10.91 10"/><path id="path9675" class="cls-8" d="m123.63 315.18-3.83 5.31 4.85 4.57"/><path id="path9677" class="cls-8" d="M118.42 283.32 111 297l12 8.69"/><path id="path9679" class="cls-8" d="m119.62 289.74-3.19 5.74 5.35 4"/><path id="path9681" class="cls-8" d="m108 257.24-5.31 14.64 13.18 6.77"/><path id="path9683" class="cls-8" d="m110.16 263.41-2.3 6.16 5.88 3.12"/><path id="path9685" class="cls-8" d="m95.46 230.78-3.55 15.16 13.93 5.14"/><path id="path9687" class="cls-8" d="M98.33 236.66 96.8 243l6.2 2.37"/><path id="path9689" class="cls-10" d="m80.68 206.65-2 15.41 13.2 3.94"/><path id="path9691" class="cls-10" d="m83.83 212.24-.92 6.49 5.92 1.84"/><path id="path9693" class="cls-10" d="m62.79 183.3.74 16 13.68 1.48"/><path id="path9695" class="cls-10" d="m66.86 188.93.25 6.48 6.13.75"/><path id="path9697" class="cls-8" d="M99.25 236.27c-4-6.7-7.8-13.47-12-20-5.39-8.44-10.88-16.8-17-24.73-5.17-6.74-11-12.87-16.51-19.28"/><path id="path9699" class="cls-8" d="M59.24 179.75 53.5 179"/><path id="path9701" class="cls-7" d="m53.75 183 5.49 1.24-.49 14.49-5-1.24Z"/><path id="path9703" class="cls-8" d="m57.76 216.74 1-13-5-1.24"/><path id="path9705" class="cls-8" d="m100.31 332.19 7.48-9.29-9-7.58"/><path id="path9707" class="cls-8" d="m100 327.3 2.73-3.65-3.26-2.77"/><path id="path9709" class="cls-8" d="m98 307.56 5.74-10.38-10.1-6"/><path id="path9711" class="cls-8" d="m96.87 302.81 2.06-4-3.69-2.16"/><path id="path9713" class="cls-8" d="m91.49 283.22 4.85-10.85-10.56-5.1"/><path id="path9715" class="cls-8" d="m90 278.54 1.71-4.18-3.87-1.84"/><path id="path9717" class="cls-8" d="m83.3 258.77 2.91-11.52-11.3-3.19"/><path id="path9719" class="cls-8" d="m81 254.44 1-4.44-4.15-1.14"/><path id="path9721" class="cls-8" d="m71.33 235.74 1.56-11.8-11.59-1.85"/><path id="path9723" class="cls-8" d="m68.53 231.7.42-4.5-4.21-.68"/><path id="path9725" class="cls-7" d="M79 341.5c-3.19-8.75-5.82-17.71-9.54-26.25-2.33-5.39-4.6-10.92-8-15.73-2.23-3.19-5.35-5.67-8-8.51l.25 14 4.5-1-2.51 6.23 5.77.25-3.47 4.26 5.25.5-3.25 4.5 5.77.25-4 5 6.48.5-3.75 5 5.77.54-3.5 4.74 5 .75-3.28 5.47 7 .25Z"/><path id="path9727" class="cls-11" d="M68 375.77c-2.34 2.51-6.2 3.15-9.5 4.18a16.27 16.27 0 0 1-5.49 1 11.59 11.59 0 0 1-6-1.74 4.19 4.19 0 0 1-2-2.76 2.94 2.94 0 0 1 1.24-2.23 5.35 5.35 0 0 1 2.27-.75c1.24-.35 2.62-.14 3.75-.74a5.23 5.23 0 0 0 2.41-2.55 7.34 7.34 0 0 0 .11-4.11 14.61 14.61 0 0 0-1.79-4.3l.25-14.28c2.83-.32 5.81-1.24 8.75-1 1.73.14 3.68.35 5 1.49 2.38 2.12 3 5.67 3.76 8.75a27.36 27.36 0 0 1 .5 9.74c-.46 3.26-1 6.88-3.26 9.29Z"/><path id="path9729" class="cls-11" d="M99.25 332.5c-4.5 1.85-8.08 3.37-12 5.25-3.37 1.63-6.7 3.44-10 5.24-3.11 1.7-6.73 3.58-9.24 5.25"/><path id="path9731" class="cls-11" d="M97.76 390.76c-5.42-2.59-10.91-5.07-16.26-7.76-4.29-2.17-8.51-4.5-12.76-6.74"/><path id="path9733" class="cls-11" d="M73.49 378.5a85.58 85.58 0 0 0 2.76-11 41.86 41.86 0 0 0 0-11.51c-.56-3.37-3.26-9.75-3.26-9.75L85.75 339l-5.49 9 6 6-6.48 7.23 6 8.26-5.25 4.25 3.26 10Z"/><path id="path9735" class="cls-8" d="m96 388.74-7.48-12.23 6.48-6.27-6.24-8.5 6.48-8L89.5 348l7-13.5"/><path id="path9737" class="cls-8" d="m97.51 382.25-2.51-4 3.75-3"/><path id="path9739" class="cls-8" d="m99.5 365.24-3-3.75 3.26-4.25"/><path id="path9741" class="cls-8" d="m100.24 350.75-3.24-4.5 3.22-5"/><path id="path9743" class="cls-9" d="M93.26 326.27 82 331.76s-3.4-11.45-5.49-17c-1.77-4.75-3.47-9.6-6-14-2.94-5.07-10.52-14-10.52-14V234.5s9.88 15.69 14 24A199.45 199.45 0 0 1 85 285a184.4 184.4 0 0 1 5.74 23.28c1.14 5.91 2.52 17.99 2.52 17.99Z"/><path id="path9745" class="cls-9" d="M95.31 483.48S94.64 476.19 93 473a22.57 22.57 0 0 0-7-7.76 21.35 21.35 0 0 0-8.26-3.48 25.68 25.68 0 0 0-7.48 0 44.66 44.66 0 0 0-5 1s3.23 1 4.25 2.23c2.24 2.55 2.56 6.27 3.51 9.49s1.17 6.63 2.27 9.78 2.09 6.63 4.25 9.25a11.2 11.2 0 0 0 4.5 3.23 14 14 0 0 0 3.3.53Z"/><path id="path9747" class="cls-8" d="M90.5 490.54c-1.21-4-2.24-7.8-4.26-11.27a41.58 41.58 0 0 0-6.48-8c-1.56-1.63-3.33-3-5-4.5"/><path id="path9749" class="cls-8" d="M81.89 487.38c1.77-.95 5.7-.1 7.65.29 1.35-2.66 2.44-4.72 2.34-7.2"/><path id="path9751" class="cls-8" d="M80.29 482.85c1.77-1 5.1-.68 7-.29 1.35-2.65 2.45-5.24 2.34-7.72"/><path id="path9753" class="cls-8" d="M78 476.68c1.81-1 4.36-.25 6.31.14 1.35-2.65 1.06-5.06 1-7.54"/><path id="path9755" class="cls-8" d="M75.44 472.18c1.77-1 2.9-.07 4.85.32 1.35-2.66.64-3.69.53-6.17"/><path id="path9757" class="cls-8" d="M90 491.63a9.13 9.13 0 0 0-5.31.36"/><path id="path9759" class="cls-2" d="M210.08 398.41c.85-.32 1.95-.89 2.06-1.81s-.89-1.66-1.63-2.16A6.76 6.76 0 0 0 209 394c-.53-.18-1.24-.25-1.59-.75s-.11-1.24-.25-1.84c-.42-1.49-.6-3.26-1.73-4.29a6.39 6.39 0 0 0-3.87-1.27 16.14 16.14 0 0 0-3.47.42 14.12 14.12 0 0 1-2.73.32 2.75 2.75 0 0 1-1.31-.39 1.9 1.9 0 0 1-.49-1.13 12.1 12.1 0 0 1-.11-2.63 15 15 0 0 0-.11-3.36 6.51 6.51 0 0 0-1.91-3.47 7.15 7.15 0 0 0-4-1.17 17 17 0 0 0-3.48.63 10.88 10.88 0 0 1-2.65.5 1.61 1.61 0 0 1-1.14-.28c-.18-.14-.18-.46-.21-.68a11.6 11.6 0 0 1 .21-2.19 12.29 12.29 0 0 0 .25-3A6.29 6.29 0 0 0 179 366a7.22 7.22 0 0 0-3.79-1.63 20.23 20.23 0 0 0-3.55.28c-1.45 0-3.22.75-4.36-.18-.88-.7-.56-2.16-.77-3.26a16.89 16.89 0 0 0-.5-3 6.35 6.35 0 0 0-2.16-3 5 5 0 0 0-3-.53 10.44 10.44 0 0 0-2.2.67c-.6.18-1.27.78-1.87.53-.18-.07-.22-.32-.25-.5a17 17 0 0 1-.6-1.87 7.09 7.09 0 0 0-1-2.38 4.42 4.42 0 0 0-3.08-1.81 4.54 4.54 0 0 0-3 1.81 6.87 6.87 0 0 0-.82 2.38c-.21.6-.32 1.2-.53 1.8-.07.11-.07.29-.18.32s-.35 0-.53 0a13.27 13.27 0 0 1-1.7-.71 10.5 10.5 0 0 0-2.41-.85 5 5 0 0 0-3.3.64 5.64 5.64 0 0 0-1.8 3.37 11.64 11.64 0 0 0 .1 3.11 10.72 10.72 0 0 1 .11 2.2c0 .18 0 .39-.14.5s-.75.14-1.1.14a10.64 10.64 0 0 1-2.37-.5c-1.07-.35-2-1.2-3.12-1.27s-2.34 0-2.77.85.29 2 .93 2.73c.95.95 2.48 1.09 3.75 1.48a12.16 12.16 0 0 0 3.33.71 6.24 6.24 0 0 0 3.62-.85 5.79 5.79 0 0 0 1.84-3.36 12.82 12.82 0 0 0-.07-3.09c0-.78-.64-1.8-.07-2.33s1.24 0 1.84.17c.81.22 1.52.78 2.34.92a5.77 5.77 0 0 0 3.22-.21 6.08 6.08 0 0 0 2.16-2.41c.39-.67 0-2.16.82-2.16s.42 1.59.81 2.3a5.13 5.13 0 0 0 2.2 2.45c1.56.64 3.37-.43 5.07-.39.64 0 1.45-.25 2 .18s.21 1.52.42 2.26c.6 2.09.6 4.72 2.3 6.06 1.95 1.56 4.89 1 7.37 1a25.57 25.57 0 0 1 2.7-.25 1.91 1.91 0 0 1 1.27.5 1.2 1.2 0 0 1 .25.74 12 12 0 0 1-.25 2.23 14.47 14.47 0 0 0-.24 3.05 5.81 5.81 0 0 0 1.55 3.4 6.63 6.63 0 0 0 3.94 1.31 14.23 14.23 0 0 0 3.47-.63 17.43 17.43 0 0 1 2.73-.5 2.06 2.06 0 0 1 1.24.25 2 2 0 0 1 .53 1.1 14.49 14.49 0 0 1 .07 2.55 16.06 16.06 0 0 0 .14 3.4 6.54 6.54 0 0 0 1.84 3.51 7 7 0 0 0 3.83 1.31 14.44 14.44 0 0 0 3.51-.36 18.6 18.6 0 0 1 2.76-.35c.46 0 1.07 0 1.35.35s.14 1 .25 1.46c.32 1.45.35 3.12 1.31 4.28a7.49 7.49 0 0 0 3.33 1.88 11.87 11.87 0 0 0 1.95.5 1.45 1.45 0 0 0 .35.07Z"/><path id="path9761" class="cls-2" d="M210 386.86a2.15 2.15 0 0 0 1.87-1.38 2.09 2.09 0 0 0-.7-2.24L153 337.36a2.08 2.08 0 0 0-2.37 0l-22.75 15.95a2 2 0 1 0 2.27 3.29l21.57-15.13 57 45a2.13 2.13 0 0 0 1.28.46Z"/><path id="path9763" d="M152.93 326.27v-63.89l-9.74 6.81-.32 63.31Z"/><path id="path9765" class="cls-4" d="m211.5 372.12-21-16.87-.29-54.42 21.3 14.49Z"/><path id="path9767" class="cls-12" d="m190.2 356.17-.6-56.23"/><path id="path9769" class="cls-12" d="m184.29 352-.29-57.37"/><path id="path9771" class="cls-12" d="m157.36 329.24-.29-68.35"/><path id="path9773" class="cls-8" d="m119.52 284.56 36.39-24.23"/><path id="path9775" class="cls-12" d="m157.39 270.25 26.33 26.86-26.5 25.65 26.78 27.5"/><path id="path9777" class="cls-12" d="m168.13 338.81 16.05-16.4-26.79-27.93 15.17-14.17"/><path id="path9779" class="cls-12" d="m171 328.57 4.93-5.28-4.93-5.81-5.1 5.28Z"/><path id="path9781" class="cls-12" d="m171.11 300.9 4.28-4.71-4.85-4.93-4.32 4.61Z"/><path id="path9783" class="cls-13" d="m183.12 342.32-4.89-5.32 5.14-5.42Z"/><path id="path9785" class="cls-13" d="m157.93 314.29 5.24-5.46-5.32-5.17Z"/><path id="path9787" class="cls-13" d="m183.4 314.33-4.82-5.25 4.93-4.53Z"/><path id="path9789" class="cls-13" d="m157.78 286.8 4.61-4.75-4.85-4.75Z"/><path id="path9791" class="cls-8" d="M227.06 410.49c7.08-3.54 14.17-7.05 21.22-10.63 5.07-2.55 10.2-5 15.2-7.76 7.19-3.93 14.35-7.93 21.22-12.4 6.45-4.18 12.48-8.93 18.75-13.43-4.15-5.53-8.19-11.12-12.4-16.62-3.58-4.64-7.48-9.07-10.95-13.78-3.23-4.36-6.13-9-9.18-13.43a61.13 61.13 0 0 1-7.44 2.13 72.8 72.8 0 0 1-15.2.35 92 92 0 0 1-12-1.77 93.72 93.72 0 0 1-12.77-3.15 80.59 80.59 0 0 1-12.36-5.67 124.19 124.19 0 0 1-13.08-8.47A106.49 106.49 0 0 1 185 295.23c-3.87-3.86-6.95-8.43-10.28-12.76-3.61-4.75-6.84-9.81-10.59-14.49a97 97 0 0 0-8.13-9.18 81.81 81.81 0 0 0-13.11-10.59 75.77 75.77 0 0 0-14.14-6.73 66.42 66.42 0 0 0-14.49-4.26c-4.89-.7-9.88 0-14.84 0 2.72 5.57 5.63 11 8.14 16.62 3.12 7.09 6.06 14.25 8.47 21.58a193.15 193.15 0 0 1 5.67 20.87c1.49 7.23 2.41 14.56 3.19 21.9.57 5.53.89 11.09 1.06 16.62.18 6.13 0 12.26 0 18.39-.07 5.77-.14 11.55-.35 17.32-.25 6-.71 12-1.06 18"/><path id="path9793" class="cls-3" d="M30 150v360h270"/><path id="path9795" d="M187.94 269.47c-.68.07-1.42.67-2.84 1.7l-3.12 2.2-3.08 2.23c-3.86 2.3-2.8 2.59-.18 5.74l2.95 3.54 2.9 3.51c2.69 3.61 2.55 3.86 5.71 1l2.83-2.59 2.83-2.59c3.34-2.58 2.66-2.76.15-5.77l-2.63-3.16-2.65-3.15c-1.38-1.91-2-2.69-2.87-2.62Zm-.53 5.53a2.8 2.8 0 0 1 1.94.74 2 2 0 0 1 .43 1.35c0 .21-.28.49-.11.67s.39-.18.61-.18a2.15 2.15 0 0 1 1.38.5 2.72 2.72 0 0 1 .74 1.91 2.82 2.82 0 0 1-.74 1.95 2.33 2.33 0 0 1-1.38.43c-.22 0-.47-.29-.61-.11s.11.39.11.6a2.05 2.05 0 0 1-.43 1.38 2.9 2.9 0 0 1-3.89 0 2.25 2.25 0 0 1-.46-1.38c0-.21.31-.46.17-.6s-.46.14-.67.11a2.22 2.22 0 0 1-1.35-.43 2.82 2.82 0 0 1-.74-1.95 2.72 2.72 0 0 1 .74-1.91 2 2 0 0 1 1.35-.5c.21 0 .5.32.67.18s-.17-.46-.17-.67a2.25 2.25 0 0 1 .46-1.35 2.81 2.81 0 0 1 1.95-.74Z"/><path id="path9797" d="M201.44 285.24c-.64.14-1.31.88-2.52 2.12l-2.69 2.7-2.66 2.69c-3.47 2.94-2.34 3.05.74 5.7l3.51 3 3.44 3c3.26 3.12 3.15 3.4 5.81 0l2.34-3.05 2.37-3c2.87-3.12 2.2-3.19-.81-5.74l-3.12-2.7-3.12-2.65c-1.7-1.67-2.48-2.34-3.29-2.09Zm.39 5.52a2.77 2.77 0 0 1 2 .43 1.84 1.84 0 0 1 .64 1.24c.07.21-.18.53 0 .67s.35-.25.6-.25a2.17 2.17 0 0 1 1.42.22 2.88 2.88 0 0 1 .64 3.82 2.2 2.2 0 0 1-1.28.68c-.21 0-.49-.22-.64 0s.22.39.25.6a2.37 2.37 0 0 1-.21 1.42 2.69 2.69 0 0 1-1.81 1.06 2.73 2.73 0 0 1-2-.42 2.1 2.1 0 0 1-.71-1.28c0-.21.25-.49.07-.63s-.39.21-.63.24a2.08 2.08 0 0 1-1.39-.21 2.86 2.86 0 0 1-.63-3.83 2.06 2.06 0 0 1 1.24-.67c.21-.07.53.21.67 0s-.25-.39-.28-.61a2.06 2.06 0 0 1 .25-1.41 2.7 2.7 0 0 1 1.77-1.07Z"/><path id="path9799" d="M217.31 297.57c-.57.35-1 1.27-1.74 2.83l-1.7 3.4-1.66 3.4c-2.38 3.87-1.24 3.62 2.51 5.18l4.26 1.73 4.21 1.74c4.08 1.91 4.08 2.23 5.5-1.84l1.27-3.62 1.31-3.58c1.74-3.89 1.06-3.72-2.58-5.2l-3.8-1.53-3.82-1.56c-2.13-1-3-1.45-3.76-.95Zm2.13 5.13a2.76 2.76 0 0 1 2.05-.24 2.07 2.07 0 0 1 1 1c.11.22 0 .57.18.64s.28-.32.49-.42a2.21 2.21 0 0 1 1.42-.22 2.7 2.7 0 0 1 1.56 1.35 2.65 2.65 0 0 1 .25 2.05 2 2 0 0 1-1 1c-.18.14-.57 0-.61.22s.29.28.39.46a2.06 2.06 0 0 1 .25 1.45 2.87 2.87 0 0 1-3.4 1.81 2.06 2.06 0 0 1-1.06-1c-.11-.17 0-.56-.15-.63s-.31.31-.53.42a1.93 1.93 0 0 1-1.38.25 2.76 2.76 0 0 1-1.59-1.35 2.88 2.88 0 0 1-.25-2.09 2 2 0 0 1 1-1c.18-.1.57 0 .64-.17s-.36-.32-.46-.5a2.19 2.19 0 0 1-.21-1.42 2.71 2.71 0 0 1 1.38-1.56Z"/><path id="path9801" d="M236 305.4c-.43.53-.57 1.52-.82 3.22l-.63 3.76-.61 3.75c-1.13 4.36-.14 3.8 3.94 4.18l4.57.43 4.57.43c4.43.63 4.5.92 4.68-3.37l.17-3.83.18-3.82c.53-4.22-.07-3.83-4-4.19l-4.11-.39-4.11-.35c-2.34-.35-3.33-.46-3.86.18Zm3.51 4.29a2.77 2.77 0 0 1 1.91-.82 1.85 1.85 0 0 1 1.28.64c.14.14.14.53.35.53s.18-.39.36-.53a2.07 2.07 0 0 1 1.27-.64 2.58 2.58 0 0 1 1.91.82 2.77 2.77 0 0 1 .85 1.91 2.12 2.12 0 0 1-.67 1.27c-.14.18-.53.15-.53.36s.39.18.53.35a2.17 2.17 0 0 1 .67 1.28 2.92 2.92 0 0 1-2.72 2.76 2.11 2.11 0 0 1-1.31-.67c-.18-.14-.11-.53-.36-.53s-.18.39-.35.53a2.22 2.22 0 0 1-1.28.67 2.72 2.72 0 0 1-1.88-.85 2.81 2.81 0 0 1-.85-1.91 2.12 2.12 0 0 1 .6-1.28c.18-.17.61-.1.57-.35s-.42-.18-.57-.36a2 2 0 0 1-.6-1.27 2.86 2.86 0 0 1 .84-1.91Z"/><path id="path9803" d="M173.69 272.69c.64-.07 1.42-.67 2.84-1.66l3.08-2.23 3.12-2.2c3.86-2.3 2.76-2.62.18-5.78l-2.91-3.51-2.9-3.54c-2.69-3.58-2.55-3.86-5.71-1l-2.83 2.63-2.87 2.6c-3.37 2.58-2.7 2.76-.15 5.77l2.63 3.16 2.65 3.15c1.38 1.91 2 2.73 2.87 2.62Zm.53-5.52a2.76 2.76 0 0 1-1.94-.75 2 2 0 0 1-.43-1.35c0-.21.25-.49.11-.63s-.39.17-.61.14a2.36 2.36 0 0 1-1.38-.46 2.82 2.82 0 0 1-.74-1.95 2.89 2.89 0 0 1 .74-1.95 2.26 2.26 0 0 1 1.38-.42c.22 0 .46.28.61.14s-.15-.43-.11-.64a2.05 2.05 0 0 1 .43-1.38 2.76 2.76 0 0 1 1.94-.75 2.7 2.7 0 0 1 1.92.75 2.1 2.1 0 0 1 .49 1.38c0 .21-.32.46-.17.64s.42-.14.67-.14a2.23 2.23 0 0 1 1.35.42 2.89 2.89 0 0 1 .74 1.95 2.82 2.82 0 0 1-.74 1.95 2.34 2.34 0 0 1-1.35.46c-.25 0-.5-.32-.67-.14s.17.42.17.63a2 2 0 0 1-.49 1.35 2.7 2.7 0 0 1-1.92.75Z"/><path id="path9805" d="M160.48 256.64c.63-.18 1.31-.92 2.55-2.12l2.66-2.73 2.69-2.7c3.43-2.9 2.3-3-.78-5.7l-3.47-3-3.48-3c-3.22-3.08-3.11-3.36-5.77 0l-2.34 3-2.37 3c-2.87 3.12-2.2 3.15.77 5.71l3.12 2.69 3.16 2.66c1.7 1.66 2.44 2.33 3.26 2.12Zm-.39-5.53a2.83 2.83 0 0 1-2-.42 2.06 2.06 0 0 1-.68-1.28c0-.21.22-.53 0-.63s-.39.21-.6.24a2.17 2.17 0 0 1-1.42-.24 2.69 2.69 0 0 1-1.06-1.78 2.75 2.75 0 0 1 .39-2.05 2.1 2.1 0 0 1 1.31-.64c.21-.07.49.21.64 0s-.22-.35-.25-.57a2.05 2.05 0 0 1 .21-1.45 2.7 2.7 0 0 1 1.77-1.06 2.83 2.83 0 0 1 2.06.42 2.19 2.19 0 0 1 .67 1.28c0 .21-.21.5 0 .64s.39-.22.61-.22a2.1 2.1 0 0 1 1.41.18 2.84 2.84 0 0 1 1.07 1.81 2.7 2.7 0 0 1-.43 2 2.11 2.11 0 0 1-1.24.71c-.21 0-.57-.25-.67-.07s.25.42.25.63a2.2 2.2 0 0 1-.22 1.42 2.93 2.93 0 0 1-1.8 1.06Z"/><path id="path9807" d="M143.36 243c.57-.39 1-1.28 1.74-2.84l1.7-3.4 1.66-3.44c2.34-3.82 1.24-3.58-2.51-5.14l-4.25-1.73-4.26-1.77c-4-1.92-4-2.2-5.45 1.87l-1.28 3.62-1.31 3.58c-1.73 3.86-1.06 3.68 2.59 5.17l3.79 1.56 3.83 1.52c2.12 1.11 3.04 1.5 3.75 1Zm-2.12-5.14a2.79 2.79 0 0 1-2.06.25 2 2 0 0 1-1-1c-.1-.17 0-.56-.17-.63s-.29.35-.5.42a2 2 0 0 1-1.42.25 2.85 2.85 0 0 1-1.59-1.35 2.88 2.88 0 0 1-.25-2.09 2.23 2.23 0 0 1 1-1c.18-.1.53 0 .6-.17s-.32-.29-.39-.5a2.23 2.23 0 0 1-.28-1.42 2.86 2.86 0 0 1 1.38-1.56 2.76 2.76 0 0 1 2.05-.24 2.06 2.06 0 0 1 1.07 1c.1.18-.07.53.14.6s.32-.32.53-.39a1.94 1.94 0 0 1 1.38-.25 2.87 2.87 0 0 1 1.6 1.35 2.75 2.75 0 0 1 .24 2.06 2.17 2.17 0 0 1-1 1.06c-.17.1-.56-.07-.64.18s.36.28.43.49a2.24 2.24 0 0 1 .25 1.42 3 3 0 0 1-1.38 1.56Z"/><path id="path9809" d="M124.69 235.06c.42-.49.53-1.49.81-3.19l.61-3.75.6-3.76c1.13-4.39.14-3.82-3.93-4.21l-4.58-.43-4.53-.42c-4.43-.64-4.54-.93-4.71 3.4l-.15 3.82-.21 3.79c-.53 4.22.07 3.87 4 4.22l4.07.36 4.11.35c2.35.39 3.38.5 3.91-.18Zm-3.54-4.28a2.86 2.86 0 0 1-1.92.85A2 2 0 0 1 118 231c-.18-.14-.18-.57-.39-.57s-.14.43-.32.57a2.07 2.07 0 0 1-1.31.64 2.92 2.92 0 0 1-1.91-.85 2.75 2.75 0 0 1-.82-1.88 2 2 0 0 1 .64-1.28c.14-.18.53-.14.53-.35s-.39-.21-.53-.36a2.27 2.27 0 0 1-.67-1.31 2.8 2.8 0 0 1 .85-1.88 2.83 2.83 0 0 1 1.91-.85 2.17 2.17 0 0 1 1.31.64c.15.14.11.57.32.57s.21-.43.39-.57a2 2 0 0 1 1.24-.64 2.86 2.86 0 0 1 1.92.85 2.7 2.7 0 0 1 .81 1.88 2 2 0 0 1-.6 1.28c-.14.18-.57.14-.57.35s.43.21.57.36a2.29 2.29 0 0 1 .64 1.31 2.84 2.84 0 0 1-.86 1.87Z"/><path id="path9811" d="m261.28 306.14-1.56.32c-2.12.25-3 .43-3.33 1.21a9.35 9.35 0 0 0 .07 3.26l.36 3.79.35 3.82c.07 4.5.78 3.72 4.4 3l4-.78 3.9-.71-1.91-3.29a3 3 0 0 1-.78.39 1.85 1.85 0 0 1-1.28-.29c-.18-.1-.21-.49-.39-.42s-.11.42-.21.64a1.75 1.75 0 0 1-1 .88 2.11 2.11 0 0 1-1.81-.28 2.89 2.89 0 0 1-1.17-1.67 2.37 2.37 0 0 1 .22-1.38c.07-.18.49-.25.42-.46s-.42-.11-.6-.21a2 2 0 0 1-.81-1.1 3 3 0 0 1 .28-2.06 2.61 2.61 0 0 1 1.42-1.27 1.59 1.59 0 0 1 1.24.28c.17.11.24.5.46.46l.1-.1-2.41-4.08Z"/><path id="path9813" d="m99.35 234.35 1.56-.31c2.13-.25 3-.43 3.33-1.21.25-.6.11-1.56 0-3.26l-.39-3.83-.36-3.79c0-4.5-.77-3.72-4.35-3l-4 .78-3.9.7 2 3.3a2 2 0 0 1 .74-.39 1.84 1.84 0 0 1 1.28.28c.17.11.21.46.42.43s.07-.43.18-.64a2 2 0 0 1 1-.92 2.17 2.17 0 0 1 1.8.32 3.06 3.06 0 0 1 1.21 1.63 2.26 2.26 0 0 1-.25 1.41c-.07.18-.5.25-.42.47s.42.1.6.21a2 2 0 0 1 .81 1.1 2.85 2.85 0 0 1-.28 2 2.34 2.34 0 0 1-1.42 1.31 1.76 1.76 0 0 1-1.24-.29c-.18-.1-.25-.49-.46-.46l-.11.11 2.41 4.07Z"/><path id="path9815" d="M95 101c2 4 7 10 12 10 9 0 13-8 13-18s-4-19-13-19c-5 0-8 5-11 8-1 1-2 0-1-1 3-3 8-11 8-18 0-8-5-18-13-18S77 55 77 63c0 7 5 15 8 18 1 1 0 2-1 1-3-3-6-8-11-8-9 0-13 9-13 19s4 18 13 18c5 0 10-6 12-10 1-1 1 0 1 1-1 8-1 10-2 16s-4 17-4 17c5-2 15-2 20 0 0 0-3-11-4-17s-1-8-2-16c0-1 0-2 1-1Z"/><path id="path9817" d="M32.49 118c1 2 3.51 5 6 5 4.5 0 6.48-4 6.48-9s-2-9.5-6.48-9.5c-2.52 0-4 2.52-5.53 4-.5.49-1 0-.5-.5 1.53-1.49 4-5.49 4-9 0-4-2.48-9-6.49-9s-6.52 5-6.52 9c0 3.51 2.52 7.51 4 9 .49.5 0 1-.5.5-1.49-1.49-3-4-5.49-4C17 104.49 15 109 15 114s2 9 6.52 9c2.48 0 5-3 6-5 .49-.49.49 0 .49.5-.49 4-.49 5-1 8s-2 8.5-2 8.5a17.17 17.17 0 0 1 10 0s-1.53-5.49-2-8.5-.5-4-1-8c-.01-.5-.01-1 .48-.5Z"/><path id="path9819" d="M265 439c-2-4-7-10-12-10-9 0-13 8-13 18s4 19 13 19c5 0 8-5 11-8 1-1 2 0 1 1-3 3-8 11-8 18 0 8 5 18 13 18s13-10 13-18c0-7-5-15-8-18-1-1 0-2 1-1 3 3 6 8 11 8 9 0 13-9 13-19s-4-18-13-18c-5 0-10 6-12 10-1 1-1 0-1-1 1-8 1-10 2-16s4-17 4-17c-5 2-15 2-20 0 0 0 3 11 4 17s1 8 2 16c0 1 0 2-1 1Z"/><path id="path9821" d="M327.51 422c-1-2-3.51-5-6-5-4.5 0-6.48 4-6.48 9s2 9.5 6.48 9.5c2.52 0 4-2.52 5.53-4 .5-.49 1 0 .5.5-1.53 1.49-4 5.49-4 9 0 4 2.48 9 6.49 9s6.52-5 6.52-9c0-3.51-2.52-7.51-4-9-.49-.5 0-1 .5-.5 1.49 1.49 3 4 5.49 4 4.5 0 6.52-4.5 6.52-9.5s-2-9-6.52-9c-2.48 0-5 3-6 5-.49.49-.49 0-.49-.5.49-4 .49-5 1-8s2-8.5 2-8.5a17.17 17.17 0 0 1-10 0s1.53 5.49 2 8.5.5 4 1 8c-.05.5-.05 1-.54.5Z"/></g></g></g></svg>