<svg xmlns="http://www.w3.org/2000/svg" viewBox="0 0 360 540"><defs><style>.cls-2{fill:#f55}</style></defs><g id="2" data-name="1"><g id="svg2"><g id="d01"><rect id="rect6472-38" x=".5" y=".5" width="359" height="539" rx="29.94" style="fill:#fff;stroke:#000"/><path id="path3204-24-49" class="cls-2" d="M180 225s6 15 13 25a177 177 0 0 0 17 20 177 177 0 0 0-17 20c-7 10-13 25-13 25s-6-15-13-25a177 177 0 0 0-17-20 177 177 0 0 0 17-20c7-10 13-25 13-25"/><path id="path3497-2" class="cls-2" d="m27.5 30-9 50h5l2.34-13h8.32l2.34 13h5l-9-50ZM30 43.91 33.25 62h-6.5Z"/><path id="path3497-5-6" class="cls-2" d="m327.5 510-9-50h5l2.34 13h8.32l2.34-13h5l-9 50Zm2.5-13.91 3.25-18.09h-6.5l3.25 18.09Z"/><path id="path3204-24-1-57" class="cls-2" d="M30 90a74.45 74.45 0 0 0 6.5 12.5 88.5 88.5 0 0 0 8.5 10 88.5 88.5 0 0 0-8.5 10A74.45 74.45 0 0 0 30 135a74.45 74.45 0 0 0-6.5-12.5 88.5 88.5 0 0 0-8.5-10 88.5 88.5 0 0 0 8.5-10A74.45 74.45 0 0 0 30 90"/><path id="path3204-24-1-7" class="cls-2" d="M330 405a74.45 74.45 0 0 0 6.5 12.5 88.5 88.5 0 0 0 8.5 10 88.5 88.5 0 0 0-8.5 10A74.45 74.45 0 0 0 330 450a74.45 74.45 0 0 0-6.5-12.5 88.5 88.5 0 0 0-8.5-10 88.5 88.5 0 0 0 8.5-10A74.45 74.45 0 0 0 330 405"/></g></g></g></svg>