<svg xmlns="http://www.w3.org/2000/svg" viewBox="0 0 360 540"><defs><style>.cls-2{fill:#f55}</style></defs><g id="2" data-name="1"><g id="svg2"><g id="d02"><rect id="rect6472-17" x=".5" y=".5" width="359" height="539" rx="29.94" style="fill:#fff;stroke:#000"/><path id="rect3163-52-9-8-1-38-3" class="cls-2" d="M30 30a10 10 0 0 0-10 10v5h5v-5a5 5 0 0 1 10 0v5a8.13 8.13 0 0 1-1 3.9C29.54 58 24.72 66 20 75v5h20V70h-5v5h-9.5C30 67.08 33.72 59.43 38 51.4a11.2 11.2 0 0 0 2-6.4v-5a10 10 0 0 0-10-10Z"/><path id="rect3163-52-9-8-1-38-8-0" class="cls-2" d="M330 510a10 10 0 0 0 10-10v-5h-5v5a5 5 0 0 1-10 0v-5a8.13 8.13 0 0 1 1-3.9c4.46-9.1 9.28-17.13 14-26.1v-5h-20v10h5v-5h9.5c-4.49 7.92-8.22 15.57-12.5 23.6a11.2 11.2 0 0 0-2 6.4v5a10 10 0 0 0 10 10Z"/><path id="path3204-24-04" class="cls-2" d="M180 45s6 15 13 25a177 177 0 0 0 17 20 177 177 0 0 0-17 20c-7 10-13 25-13 25s-6-15-13-25a177 177 0 0 0-17-20 177 177 0 0 0 17-20c7-10 13-25 13-25"/><path id="path3204-24-1-83" class="cls-2" d="M180 405s6 15 13 25a177 177 0 0 0 17 20 177 177 0 0 0-17 20c-7 10-13 25-13 25s-6-15-13-25a177 177 0 0 0-17-20 177 177 0 0 0 17-20c7-10 13-25 13-25"/><path id="path3204-24-1-7-0" class="cls-2" d="M30 90a74.45 74.45 0 0 0 6.5 12.5 88.5 88.5 0 0 0 8.5 10 88.5 88.5 0 0 0-8.5 10A74.45 74.45 0 0 0 30 135a74.45 74.45 0 0 0-6.5-12.5 88.5 88.5 0 0 0-8.5-10 88.5 88.5 0 0 0 8.5-10A74.45 74.45 0 0 0 30 90"/><path id="path3204-24-1-4-1" class="cls-2" d="M330 405a74.45 74.45 0 0 0 6.5 12.5 88.5 88.5 0 0 0 8.5 10 88.5 88.5 0 0 0-8.5 10A74.45 74.45 0 0 0 330 450a74.45 74.45 0 0 0-6.5-12.5 88.5 88.5 0 0 0-8.5-10 88.5 88.5 0 0 0 8.5-10A74.45 74.45 0 0 0 330 405"/></g></g></g></svg>