<svg xmlns="http://www.w3.org/2000/svg" viewBox="0 0 360 540"><defs><style>.cls-2{fill:#f55}</style></defs><g id="2" data-name="1"><g id="svg2"><g id="d04"><rect id="rect6472-33" x=".5" y=".5" width="359" height="539" rx="29.94" style="fill:#fff;stroke:#000"/><path id="rect3980-7-6-2-9-9" class="cls-2" d="M30 30 20 65v5h12v10h5V70h3v-5h-3V50h-5v15h-6.8l10-35Z"/><path id="rect3980-7-6-2-9-9-8" class="cls-2" d="m330 510 10-35v-5h-12v-10h-5v10h-3v5h3v15h5v-15h6.8l-10 35Z"/><path id="path3204-24-55" class="cls-2" d="M90 45s6 15 13 25a177 177 0 0 0 17 20 177 177 0 0 0-17 20c-7 10-13 25-13 25s-6-15-13-25a177 177 0 0 0-17-20 177 177 0 0 0 17-20c7-10 13-25 13-25"/><path id="path3204-24-1-32" class="cls-2" d="M270 45s6 15 13 25a177 177 0 0 0 17 20 177 177 0 0 0-17 20c-7 10-13 25-13 25s-6-15-13-25a177 177 0 0 0-17-20 177 177 0 0 0 17-20c7-10 13-25 13-25"/><path id="path3204-24-7-8" class="cls-2" d="M90 405s6 15 13 25a177 177 0 0 0 17 20 177 177 0 0 0-17 20c-7 10-13 25-13 25s-6-15-13-25a177 177 0 0 0-17-20 177 177 0 0 0 17-20c7-10 13-25 13-25"/><path id="path3204-24-4-25" class="cls-2" d="M270 405s6 15 13 25a177 177 0 0 0 17 20 177 177 0 0 0-17 20c-7 10-13 25-13 25s-6-15-13-25a177 177 0 0 0-17-20 177 177 0 0 0 17-20c7-10 13-25 13-25"/><path id="path3204-24-1-0-3" class="cls-2" d="M30 90a74.45 74.45 0 0 0 6.5 12.5 88.5 88.5 0 0 0 8.5 10 88.5 88.5 0 0 0-8.5 10A74.45 74.45 0 0 0 30 135a74.45 74.45 0 0 0-6.5-12.5 88.5 88.5 0 0 0-8.5-10 88.5 88.5 0 0 0 8.5-10A74.45 74.45 0 0 0 30 90"/><path id="path3204-24-1-9-6" class="cls-2" d="M330 405a74.45 74.45 0 0 0 6.5 12.5 88.5 88.5 0 0 0 8.5 10 88.5 88.5 0 0 0-8.5 10A74.45 74.45 0 0 0 330 450a74.45 74.45 0 0 0-6.5-12.5 88.5 88.5 0 0 0-8.5-10 88.5 88.5 0 0 0 8.5-10A74.45 74.45 0 0 0 330 405"/></g></g></g></svg>