<svg xmlns="http://www.w3.org/2000/svg" viewBox="0 0 360 540"><defs><style>.cls-2{fill:#f55}</style></defs><g id="2" data-name="1"><g id="svg2"><g id="d05"><rect id="rect6472-57" x=".5" y=".5" width="359" height="539" rx="29.94" style="fill:#fff;stroke:#000"/><path id="rect3163-6-0-0-2-66" class="cls-2" d="M20 30v20h10a5 5 0 0 1 5 5v15a5 5 0 0 1-10 0v-5h-5v5a10 10 0 0 0 20 0V55a10 10 0 0 0-10-10h-5V35h15v-5H20Z"/><path id="rect3163-6-0-0-2-4-5" class="cls-2" d="M340 510v-20h-10a5 5 0 0 1-5-5v-15a5 5 0 0 1 10 0v5h5v-5a10 10 0 0 0-20 0v15a10 10 0 0 0 10 10h5v10h-15v5h20Z"/><path id="path3204-24-1-82" class="cls-2" d="M30 90a74.45 74.45 0 0 0 6.5 12.5 88.5 88.5 0 0 0 8.5 10 88.5 88.5 0 0 0-8.5 10A74.45 74.45 0 0 0 30 135a74.45 74.45 0 0 0-6.5-12.5 88.5 88.5 0 0 0-8.5-10 88.5 88.5 0 0 0 8.5-10A74.45 74.45 0 0 0 30 90"/><path id="path3204-24-1-1-5" class="cls-2" d="M330 405a74.45 74.45 0 0 0 6.5 12.5 88.5 88.5 0 0 0 8.5 10 88.5 88.5 0 0 0-8.5 10A74.45 74.45 0 0 0 330 450a74.45 74.45 0 0 0-6.5-12.5 88.5 88.5 0 0 0-8.5-10 88.5 88.5 0 0 0 8.5-10A74.45 74.45 0 0 0 330 405"/><path id="path3204-24-7-4" class="cls-2" d="M90 45s6 15 13 25a177 177 0 0 0 17 20 177 177 0 0 0-17 20c-7 10-13 25-13 25s-6-15-13-25a177 177 0 0 0-17-20 177 177 0 0 0 17-20c7-10 13-25 13-25"/><path id="path3204-24-4-4" class="cls-2" d="M270 45s6 15 13 25a177 177 0 0 0 17 20 177 177 0 0 0-17 20c-7 10-13 25-13 25s-6-15-13-25a177 177 0 0 0-17-20 177 177 0 0 0 17-20c7-10 13-25 13-25"/><path id="path3204-24-16" class="cls-2" d="M180 225s6 15 13 25a177 177 0 0 0 17 20 177 177 0 0 0-17 20c-7 10-13 25-13 25s-6-15-13-25a177 177 0 0 0-17-20 177 177 0 0 0 17-20c7-10 13-25 13-25"/><path id="path3204-24-0-1" class="cls-2" d="M90 405s6 15 13 25a177 177 0 0 0 17 20 177 177 0 0 0-17 20c-7 10-13 25-13 25s-6-15-13-25a177 177 0 0 0-17-20 177 177 0 0 0 17-20c7-10 13-25 13-25"/><path id="path3204-24-9-6" class="cls-2" d="M270 405s6 15 13 25a177 177 0 0 0 17 20 177 177 0 0 0-17 20c-7 10-13 25-13 25s-6-15-13-25a177 177 0 0 0-17-20 177 177 0 0 0 17-20c7-10 13-25 13-25"/></g></g></g></svg>