<svg xmlns="http://www.w3.org/2000/svg" viewBox="0 0 360 540"><defs><style>.cls-2{fill:#f55}</style></defs><g id="2" data-name="1"><g id="svg2"><g id="d07"><rect id="rect6472-39" x=".5" y=".5" width="359" height="539" rx="29.94" style="fill:#fff;stroke:#000"/><path id="rect3980-2-1-93-8" class="cls-2" d="M20 30v10h5v-5h10L25 80h5l10-45v-5Z"/><path id="rect3980-2-1-93-0-80" class="cls-2" d="M340 510v-10h-5v5h-10l10-45h-5l-10 45v5Z"/><path id="path3204-24-1-8" class="cls-2" d="M30 90a74.45 74.45 0 0 0 6.5 12.5 88.5 88.5 0 0 0 8.5 10 88.5 88.5 0 0 0-8.5 10A74.45 74.45 0 0 0 30 135a74.45 74.45 0 0 0-6.5-12.5 88.5 88.5 0 0 0-8.5-10 88.5 88.5 0 0 0 8.5-10A74.45 74.45 0 0 0 30 90"/><path id="path3204-24-1-1-7" class="cls-2" d="M330 405a74.45 74.45 0 0 0 6.5 12.5 88.5 88.5 0 0 0 8.5 10 88.5 88.5 0 0 0-8.5 10A74.45 74.45 0 0 0 330 450a74.45 74.45 0 0 0-6.5-12.5 88.5 88.5 0 0 0-8.5-10 88.5 88.5 0 0 0 8.5-10A74.45 74.45 0 0 0 330 405"/><path id="path3204-24-9-7" class="cls-2" d="M90 45s6 15 13 25a177 177 0 0 0 17 20 177 177 0 0 0-17 20c-7 10-13 25-13 25s-6-15-13-25a177 177 0 0 0-17-20 177 177 0 0 0 17-20c7-10 13-25 13-25"/><path id="path3204-24-4-83" class="cls-2" d="M270 45s6 15 13 25a177 177 0 0 0 17 20 177 177 0 0 0-17 20c-7 10-13 25-13 25s-6-15-13-25a177 177 0 0 0-17-20 177 177 0 0 0 17-20c7-10 13-25 13-25"/><path id="path3204-24-8-8" class="cls-2" d="M180 135s6 15 13 25a177 177 0 0 0 17 20 177 177 0 0 0-17 20c-7 10-13 25-13 25s-6-15-13-25a177 177 0 0 0-17-20 177 177 0 0 0 17-20c7-10 13-25 13-25"/><path id="path3204-24-37" class="cls-2" d="M90 225s6 15 13 25a177 177 0 0 0 17 20 177 177 0 0 0-17 20c-7 10-13 25-13 25s-6-15-13-25a177 177 0 0 0-17-20 177 177 0 0 0 17-20c7-10 13-25 13-25"/><path id="path3204-24-82" class="cls-2" d="M270 225s6 15 13 25a177 177 0 0 0 17 20 177 177 0 0 0-17 20c-7 10-13 25-13 25s-6-15-13-25a177 177 0 0 0-17-20 177 177 0 0 0 17-20c7-10 13-25 13-25"/><path id="path3204-24-45-1" class="cls-2" d="M90 405s6 15 13 25a177 177 0 0 0 17 20 177 177 0 0 0-17 20c-7 10-13 25-13 25s-6-15-13-25a177 177 0 0 0-17-20 177 177 0 0 0 17-20c7-10 13-25 13-25"/><path id="path3204-24-5" class="cls-2" d="M270 405s6 15 13 25a177 177 0 0 0 17 20 177 177 0 0 0-17 20c-7 10-13 25-13 25s-6-15-13-25a177 177 0 0 0-17-20 177 177 0 0 0 17-20c7-10 13-25 13-25"/></g></g></g></svg>