<svg xmlns="http://www.w3.org/2000/svg" viewBox="0 0 360 540"><defs><style>.cls-2{fill:#f55}</style></defs><g id="2" data-name="1"><g id="svg2"><g id="d08"><rect id="rect6472-0" x=".5" y=".5" width="359" height="539" rx="29.94" style="fill:#fff;stroke:#000"/><path id="rect3163-5-18-0-7-9" class="cls-2" d="M30 30a10 10 0 0 0-10 10v5a9.92 9.92 0 0 0 3.41 7.5A9.92 9.92 0 0 0 20 60v10a10 10 0 0 0 20 0V60a9.92 9.92 0 0 0-3.41-7.5A9.92 9.92 0 0 0 40 45v-5a10 10 0 0 0-10-10Zm0 5a5 5 0 0 1 5 5v5a5 5 0 0 1-10 0v-5a5 5 0 0 1 5-5Zm0 20a5 5 0 0 1 5 5v10a5 5 0 0 1-10 0V60a5 5 0 0 1 5-5Z"/><path id="rect3163-5-18-0-7-4-7" class="cls-2" d="M330 510a10 10 0 0 1-10-10v-5a9.92 9.92 0 0 1 3.41-7.5A9.92 9.92 0 0 1 320 480v-10a10 10 0 0 1 20 0v10a9.92 9.92 0 0 1-3.41 7.5A9.92 9.92 0 0 1 340 495v5a10 10 0 0 1-10 10Zm0-5a5 5 0 0 0 5-5v-5a5 5 0 0 0-10 0v5a5 5 0 0 0 5 5Zm0-20a5 5 0 0 0 5-5v-10a5 5 0 0 0-10 0v10a5 5 0 0 0 5 5Z"/><path id="path3204-24-1-3" class="cls-2" d="M90 45s6 15 13 25a177 177 0 0 0 17 20 177 177 0 0 0-17 20c-7 10-13 25-13 25s-6-15-13-25a177 177 0 0 0-17-20 177 177 0 0 0 17-20c7-10 13-25 13-25"/><path id="path3204-24-7-7" class="cls-2" d="M270 45s6 15 13 25a177 177 0 0 0 17 20 177 177 0 0 0-17 20c-7 10-13 25-13 25s-6-15-13-25a177 177 0 0 0-17-20 177 177 0 0 0 17-20c7-10 13-25 13-25"/><path id="path3204-24-4-2" class="cls-2" d="M180 135s6 15 13 25a177 177 0 0 0 17 20 177 177 0 0 0-17 20c-7 10-13 25-13 25s-6-15-13-25a177 177 0 0 0-17-20 177 177 0 0 0 17-20c7-10 13-25 13-25"/><path id="path3204-24-6" class="cls-2" d="M90 225s6 15 13 25a177 177 0 0 0 17 20 177 177 0 0 0-17 20c-7 10-13 25-13 25s-6-15-13-25a177 177 0 0 0-17-20 177 177 0 0 0 17-20c7-10 13-25 13-25"/><path id="path3204-24-0-0" class="cls-2" d="M270 225s6 15 13 25a177 177 0 0 0 17 20 177 177 0 0 0-17 20c-7 10-13 25-13 25s-6-15-13-25a177 177 0 0 0-17-20 177 177 0 0 0 17-20c7-10 13-25 13-25"/><path id="path3204-24-9-1" class="cls-2" d="M180 315s6 15 13 25a177 177 0 0 0 17 20 177 177 0 0 0-17 20c-7 10-13 25-13 25s-6-15-13-25a177 177 0 0 0-17-20 177 177 0 0 0 17-20c7-10 13-25 13-25"/><path id="path3204-24-48-6" class="cls-2" d="M90 405s6 15 13 25a177 177 0 0 0 17 20 177 177 0 0 0-17 20c-7 10-13 25-13 25s-6-15-13-25a177 177 0 0 0-17-20 177 177 0 0 0 17-20c7-10 13-25 13-25"/><path id="path3204-24-8-5" class="cls-2" d="M270 405s6 15 13 25a177 177 0 0 0 17 20 177 177 0 0 0-17 20c-7 10-13 25-13 25s-6-15-13-25a177 177 0 0 0-17-20 177 177 0 0 0 17-20c7-10 13-25 13-25"/><path id="path3204-24-1-2" class="cls-2" d="M30 90a74.45 74.45 0 0 0 6.5 12.5 88.5 88.5 0 0 0 8.5 10 88.5 88.5 0 0 0-8.5 10A74.45 74.45 0 0 0 30 135a74.45 74.45 0 0 0-6.5-12.5 88.5 88.5 0 0 0-8.5-10 88.5 88.5 0 0 0 8.5-10A74.45 74.45 0 0 0 30 90"/><path id="path3204-24-1-4" class="cls-2" d="M330 405a74.45 74.45 0 0 0 6.5 12.5 88.5 88.5 0 0 0 8.5 10 88.5 88.5 0 0 0-8.5 10A74.45 74.45 0 0 0 330 450a74.45 74.45 0 0 0-6.5-12.5 88.5 88.5 0 0 0-8.5-10 88.5 88.5 0 0 0 8.5-10A74.45 74.45 0 0 0 330 405"/></g></g></g></svg>