<svg xmlns="http://www.w3.org/2000/svg" viewBox="0 0 360 540"><defs><style>.cls-2{fill:#f55}</style></defs><g id="2" data-name="1"><g id="svg2"><g id="h02"><rect id="rect6472-67" x=".5" y=".5" width="359" height="539" rx="29.94" style="fill:#fff;stroke:#000"/><path id="rect3163-52-9-8-1-38-15" class="cls-2" d="M30 30a10 10 0 0 0-10 10v5h5v-5a5 5 0 0 1 10 0v5a8.13 8.13 0 0 1-1 3.9C29.54 58 24.72 66 20 75v5h20V70h-5v5h-9.5C30 67.08 33.72 59.43 38 51.4a11.2 11.2 0 0 0 2-6.4v-5a10 10 0 0 0-10-10Z"/><path id="rect3163-52-9-8-1-38-8-5" class="cls-2" d="M330 510a10 10 0 0 0 10-10v-5h-5v5a5 5 0 0 1-10 0v-5a8.13 8.13 0 0 1 1-3.9c4.46-9.1 9.28-17.13 14-26.1v-5h-20v10h5v-5h9.5c-4.49 7.92-8.22 15.57-12.5 23.6a11.2 11.2 0 0 0-2 6.4v5a10 10 0 0 0 10 10Z"/><path id="path3126-1-40" class="cls-2" d="M29.5 99c0-5.52-2.86-9-7-9S15 94.48 15 100v1.41c0 3.65 1.34 7.18 2.5 10.5a68.35 68.35 0 0 0 4.5 9.43c2.5 4.72 8 13.66 8 13.66s5.47-8.94 8-13.66a68.35 68.35 0 0 0 4.53-9.43c1.16-3.32 2.5-6.85 2.5-10.5V100c0-5.52-3.36-10-7.5-10s-7 3.48-7 9c-.03 1-1.03 1-1.03 0Z"/><path id="path3126-1-1-2" class="cls-2" d="M329.5 441c0 5.52-2.86 9-7 9s-7.5-4.48-7.5-10v-1.41c0-3.65 1.34-7.18 2.5-10.5a68.35 68.35 0 0 1 4.53-9.43c2.5-4.72 8-13.66 8-13.66s5.47 8.94 8 13.66a68.35 68.35 0 0 1 4.53 9.43c1.16 3.32 2.5 6.85 2.5 10.5V440c0 5.52-3.36 10-7.5 10s-7-3.48-7-9c-.06-1-1.06-1-1.06 0Z"/><path id="path3126-60" class="cls-2" d="M179 63c0-11-5.72-18-14-18s-15 9-15 20v2.81c0 7.3 2.68 14.38 5 21 2.39 6.81 5.83 12.78 9.06 18.88C169.06 117.13 180 135 180 135s10.94-17.87 15.94-27.31c3.23-6.1 6.67-12.07 9.06-18.88 2.32-6.62 5-13.7 5-21V65c0-11-6.72-20-15-20s-14 7-14 18c0 2-2 2-2 0Z"/><path id="path3126-7-61" class="cls-2" d="M179 477c0 11.05-5.72 18-14 18s-15-8.95-15-20v-2.81c0-7.3 2.68-14.38 5-21 2.39-6.81 5.83-12.78 9.06-18.88C169.06 422.87 180 405 180 405s10.94 17.87 15.94 27.31c3.23 6.1 6.67 12.07 9.06 18.88 2.32 6.62 5 13.7 5 21V475c0 11.05-6.72 20-15 20s-14-6.95-14-18c0-2-2-2-2 0Z"/></g></g></g></svg>