<svg xmlns="http://www.w3.org/2000/svg" viewBox="0 0 360 540"><defs><style>.cls-2{fill:#f55}</style></defs><g id="2" data-name="1"><g id="svg2"><g id="h04"><rect id="rect6472-15" x=".5" y=".5" width="359" height="539" rx="29.94" style="fill:#fff;stroke:#000"/><path id="rect3980-7-6-2-9-9-0" class="cls-2" d="M30 30 20 65v5h12v10h5V70h3v-5h-3V50h-5v15h-6.8l10-35Z"/><path id="rect3980-7-6-2-9-9-8-3" class="cls-2" d="m330 510 10-35v-5h-12v-10h-5v10h-3v5h3v15h5v-15h6.8l-10 35Z"/><path id="path3126-1-64" class="cls-2" d="M29.5 99c0-5.52-2.86-9-7-9S15 94.48 15 100v1.41c0 3.65 1.34 7.18 2.5 10.5a68.35 68.35 0 0 0 4.5 9.43c2.5 4.72 8 13.66 8 13.66s5.47-8.94 8-13.66a68.35 68.35 0 0 0 4.53-9.43c1.16-3.32 2.5-6.85 2.5-10.5V100c0-5.52-3.36-10-7.5-10s-7 3.48-7 9c-.03 1-1.03 1-1.03 0Z"/><path id="path3126-1-1-92" class="cls-2" d="M329.5 441c0 5.52-2.86 9-7 9s-7.5-4.48-7.5-10v-1.41c0-3.65 1.34-7.18 2.5-10.5a68.35 68.35 0 0 1 4.53-9.43c2.5-4.72 8-13.66 8-13.66s5.47 8.94 8 13.66a68.35 68.35 0 0 1 4.53 9.43c1.16 3.32 2.5 6.85 2.5 10.5V440c0 5.52-3.36 10-7.5 10s-7-3.48-7-9c-.06-1-1.06-1-1.06 0Z"/><path id="path3126-93" class="cls-2" d="M89 63c0-11-5.72-18-14-18s-15 9-15 20v2.81c0 7.3 2.68 14.38 5 21 2.39 6.81 5.83 12.78 9.06 18.88C79.06 117.13 90 135 90 135s10.94-17.87 15.94-27.31c3.23-6.1 6.67-12.07 9.06-18.88 2.32-6.62 5-13.7 5-21V65c0-11-6.72-20-15-20s-14 7-14 18c0 2-2 2-2 0Z"/><path id="path3126-74" class="cls-2" d="M269 63c0-11-5.72-18-14-18s-15 9-15 20v2.81c0 7.3 2.68 14.38 5 21 2.39 6.81 5.83 12.78 9.06 18.88C259.06 117.13 270 135 270 135s10.94-17.87 15.94-27.31c3.23-6.1 6.67-12.07 9.06-18.88 2.32-6.62 5-13.7 5-21V65c0-11-6.72-20-15-20s-14 7-14 18c0 2-2 2-2 0Z"/><path id="path3126-0-4" class="cls-2" d="M89 477c0 11.05-5.72 18-14 18s-15-8.95-15-20v-2.81c0-7.3 2.68-14.38 5-21 2.39-6.81 5.83-12.78 9.06-18.88C79.06 422.87 90 405 90 405s10.94 17.87 15.94 27.31c3.23 6.1 6.67 12.07 9.06 18.88 2.32 6.62 5 13.7 5 21V475c0 11.05-6.72 20-15 20s-14-6.95-14-18c0-2-2-2-2 0Z"/><path id="path3126-9-4" class="cls-2" d="M269 477c0 11.05-5.72 18-14 18s-15-8.95-15-20v-2.81c0-7.3 2.68-14.38 5-21 2.39-6.81 5.83-12.78 9.06-18.88C259.06 422.87 270 405 270 405s10.94 17.87 15.94 27.31c3.23 6.1 6.67 12.07 9.06 18.88 2.32 6.62 5 13.7 5 21V475c0 11.05-6.72 20-15 20s-14-6.95-14-18c0-2-2-2-2 0Z"/></g></g></g></svg>