<svg xmlns="http://www.w3.org/2000/svg" viewBox="0 0 360 540"><defs><style>.cls-2{fill:#f55}</style></defs><g id="2" data-name="1"><g id="svg2"><g id="h08"><rect id="rect6472-7" x=".5" y=".5" width="359" height="539" rx="29.94" style="fill:#fff;stroke:#000"/><path id="rect3163-5-18-0-7-3" class="cls-2" d="M30 30a10 10 0 0 0-10 10v5a9.92 9.92 0 0 0 3.41 7.5A9.92 9.92 0 0 0 20 60v10a10 10 0 0 0 20 0V60a9.92 9.92 0 0 0-3.41-7.5A9.92 9.92 0 0 0 40 45v-5a10 10 0 0 0-10-10Zm0 5a5 5 0 0 1 5 5v5a5 5 0 0 1-10 0v-5a5 5 0 0 1 5-5Zm0 20a5 5 0 0 1 5 5v10a5 5 0 0 1-10 0V60a5 5 0 0 1 5-5Z"/><path id="rect3163-5-18-0-7-4-4" class="cls-2" d="M330 510a10 10 0 0 1-10-10v-5a9.92 9.92 0 0 1 3.41-7.5A9.92 9.92 0 0 1 320 480v-10a10 10 0 0 1 20 0v10a9.92 9.92 0 0 1-3.41 7.5A9.92 9.92 0 0 1 340 495v5a10 10 0 0 1-10 10Zm0-5a5 5 0 0 0 5-5v-5a5 5 0 0 0-10 0v5a5 5 0 0 0 5 5Zm0-20a5 5 0 0 0 5-5v-10a5 5 0 0 0-10 0v10a5 5 0 0 0 5 5Z"/><path id="path3126-1-7-9" class="cls-2" d="M329.5 441c0 5.52-2.86 9-7 9s-7.5-4.48-7.5-10v-1.41c0-3.65 1.34-7.18 2.5-10.5a68.35 68.35 0 0 1 4.53-9.43c2.5-4.72 8-13.66 8-13.66s5.47 8.94 8 13.66a68.35 68.35 0 0 1 4.53 9.43c1.16 3.32 2.5 6.85 2.5 10.5V440c0 5.52-3.36 10-7.5 10s-7-3.48-7-9c-.06-1-1.06-1-1.06 0Z"/><path id="path3126-65" class="cls-2" d="M89 63c0-11-5.72-18-14-18s-15 9-15 20v2.81c0 7.3 2.68 14.38 5 21 2.39 6.81 5.83 12.78 9.06 18.88C79.06 117.13 90 135 90 135s10.94-17.87 15.94-27.31c3.23-6.1 6.67-12.07 9.06-18.88 2.32-6.62 5-13.7 5-21V65c0-11-6.72-20-15-20s-14 7-14 18c0 2-2 2-2 0Z"/><path id="path3126-4-1" class="cls-2" d="M269 63c0-11-5.72-18-14-18s-15 9-15 20v2.81c0 7.3 2.68 14.38 5 21 2.39 6.81 5.83 12.78 9.06 18.88C259.06 117.13 270 135 270 135s10.94-17.87 15.94-27.31c3.23-6.1 6.67-12.07 9.06-18.88 2.32-6.62 5-13.7 5-21V65c0-11-6.72-20-15-20s-14 7-14 18c0 2-2 2-2 0Z"/><path id="path3126-0-0" class="cls-2" d="M179 153c0-11.05-5.72-18-14-18s-15 8.95-15 20v2.81c0 7.3 2.68 14.38 5 21 2.39 6.81 5.83 12.78 9.06 18.88C169.06 207.13 180 225 180 225s10.94-17.87 15.94-27.31c3.23-6.1 6.67-12.07 9.06-18.88 2.32-6.62 5-13.7 5-21V155c0-11.05-6.72-20-15-20s-14 6.95-14 18c0 2-2 2-2 0Z"/><path id="path3126-9-9" class="cls-2" d="M89 243c0-11.05-5.72-18-14-18s-15 9-15 20v2.81c0 7.3 2.68 14.38 5 21 2.39 6.81 5.83 12.78 9.06 18.88C79.06 297.13 90 315 90 315s10.94-17.87 15.94-27.31c3.23-6.1 6.67-12.07 9.06-18.88 2.32-6.62 5-13.7 5-21V245c0-11.05-6.72-20-15-20s-14 7-14 18c0 2-2 2-2 0Z"/><path id="path3126-48-96" class="cls-2" d="M269 243c0-11.05-5.72-18-14-18s-15 8.95-15 20v2.81c0 7.3 2.68 14.38 5 21 2.39 6.81 5.83 12.78 9.06 18.88C259.06 297.13 270 315 270 315s10.94-17.87 15.94-27.31c3.23-6.1 6.67-12.07 9.06-18.88 2.32-6.62 5-13.7 5-21V245c0-11.05-6.72-20-15-20s-14 6.95-14 18c0 2-2 2-2 0Z"/><path id="path3126-8-83" class="cls-2" d="M179 387c0 11.05-5.72 18-14 18s-15-8.95-15-20v-2.81c0-7.3 2.68-14.38 5-21 2.39-6.81 5.83-12.78 9.06-18.88C169.06 332.87 180 315 180 315s10.94 17.87 15.94 27.31c3.23 6.1 6.67 12.07 9.06 18.88 2.32 6.62 5 13.7 5 21V385c0 11.05-6.72 20-15 20s-14-6.95-14-18c0-2-2-2-2 0Z"/><path id="path3126-24" class="cls-2" d="M89 477c0 11.05-5.72 18-14 18s-15-8.95-15-20v-2.81c0-7.3 2.68-14.38 5-21 2.39-6.81 5.83-12.78 9.06-18.88C79.06 422.87 90 405 90 405s10.94 17.87 15.94 27.31c3.23 6.1 6.67 12.07 9.06 18.88 2.32 6.62 5 13.7 5 21V475c0 11.05-6.72 20-15 20s-14-6.95-14-18c0-2-2-2-2 0Z"/><path id="path3126-5" class="cls-2" d="M269 477c0 11.05-5.72 18-14 18s-15-8.95-15-20v-2.81c0-7.3 2.68-14.38 5-21 2.39-6.81 5.83-12.78 9.06-18.88C259.06 422.87 270 405 270 405s10.94 17.87 15.94 27.31c3.23 6.1 6.67 12.07 9.06 18.88 2.32 6.62 5 13.7 5 21V475c0 11.05-6.72 20-15 20s-14-6.95-14-18c0-2-2-2-2 0Z"/><path id="path3126-1-48" class="cls-2" d="M29.5 99c0-5.52-2.86-9-7-9S15 94.48 15 100v1.41c0 3.65 1.34 7.18 2.5 10.5a68.35 68.35 0 0 0 4.5 9.43c2.5 4.72 8 13.66 8 13.66s5.47-8.94 8-13.66a68.35 68.35 0 0 0 4.53-9.43c1.16-3.32 2.5-6.85 2.5-10.5V100c0-5.52-3.36-10-7.5-10s-7 3.48-7 9c-.03 1-1.03 1-1.03 0Z"/></g></g></g></svg>