<svg xmlns="http://www.w3.org/2000/svg" viewBox="0 0 360 540"><g data-name="1"><rect x=".5" y=".5" width="359" height="539" rx="29.94" style="fill:#fff;stroke:#000"/><path d="M20 30v20h10a5 5 0 0 1 5 5v15a5 5 0 0 1-10 0v-5h-5v5a10 10 0 0 0 20 0V55a10 10 0 0 0-10-10h-5V35h15v-5H20Zm320 480v-20h-10a5 5 0 0 1-5-5v-15a5 5 0 0 1 10 0v5h5v-5a10 10 0 0 0-20 0v15a10 10 0 0 0 10 10h5v10h-15v5h20ZM95 101c1 4 5 14 12 14 9 0 13-8 13-18 0-7-2.55-11.63-5-17-2.58-5.74-6.38-10.88-10-16-4.64-6.59-15-19-15-19S79.63 57.4 75 64c-3.62 5.14-7.41 10.28-10 16-2.41 5.38-5 10-5 17 0 10 4 18 13 18 7 0 11-10 12-14 1-1 1 0 1 1-1 8-1 10-2 16s-4 17-4 17c5-2 15-2 20 0 0 0-3-11-4-17s-1-8-2-16c0-1 0-2 1-1Zm180 0c1 4 5 14 12 14 9 0 13-8 13-18 0-7-2.55-11.63-5-17-2.58-5.74-6.38-10.88-10-16-4.64-6.59-15-19-15-19s-10.38 12.4-15 19c-3.62 5.14-7.41 10.28-10 16-2.41 5.38-5 10-5 17 0 10 4 18 13 18 7 0 11-10 12-14 1-1 1 0 1 1-1 8-1 10-2 16s-4 17-4 17c5-2 15-2 20 0 0 0-3-11-4-17s-1-8-2-16c0-1 0-2 1-1Zm-90 180c1 4 5 14 12 14 9 0 13-8 13-18 0-7-2.55-11.63-5-17-2.58-5.74-6.38-10.88-10-16-4.64-6.59-15-19-15-19s-10.38 12.4-15 19c-3.62 5.14-7.41 10.28-10 16-2.41 5.38-5 10-5 17 0 10 4 18 13 18 7 0 11-10 12-14 1-1 1 0 1 1-1 8-1 10-2 16s-4 17-4 17c5-2 15-2 20 0 0 0-3-11-4-17s-1-8-2-16c0-1 0-2 1-1ZM95 439c1-4 5-14 12-14 9 0 13 8 13 18 0 7-2.55 11.63-5 17-2.58 5.74-6.38 10.88-10 16-4.64 6.59-15 19-15 19s-10.38-12.4-15-19c-3.62-5.14-7.41-10.28-10-16-2.41-5.38-5-10-5-17 0-10 4-18 13-18 7 0 11 10 12 14 1 1 1 0 1-1-1-8-1-10-2-16s-4-17-4-17c5 2 15 2 20 0 0 0-3 11-4 17s-1 8-2 16c0 1 0 2 1 1Zm180 0c1-4 5-14 12-14 9 0 13 8 13 18 0 7-2.55 11.63-5 17-2.58 5.74-6.38 10.88-10 16-4.64 6.59-15 19-15 19s-10.38-12.4-15-19c-3.62-5.14-7.41-10.28-10-16-2.41-5.38-5-10-5-17 0-10 4-18 13-18 7 0 11 10 12 14 1 1 1 0 1-1-1-8-1-10-2-16s-4-17-4-17c5 2 15 2 20 0 0 0-3 11-4 17s-1 8-2 16c0 1 0 2 1 1ZM32.5 118c.5 2 2.5 7 6 7 4.5 0 6.5-4 6.5-9 0-3.5-1.29-5.81-2.5-8.5a49.56 49.56 0 0 0-5-8C35.18 96.2 30 90 30 90s-5.18 6.2-7.5 9.5a49.56 49.56 0 0 0-5 8c-1.21 2.69-2.5 5-2.5 8.5 0 5 2 9 6.5 9 3.5 0 5.5-5 6-7 .5-.5.5 0 .5.5-.5 4-.5 5-1 8s-2 8.5-2 8.5a17 17 0 0 1 10 0s-1.5-5.5-2-8.5-.5-4-1-8c0-.5 0-1 .5-.5Zm300 304c.5-2 2.5-7 6-7 4.5 0 6.5 4 6.5 9 0 3.5-1.29 5.81-2.5 8.5a49.56 49.56 0 0 1-5 8c-2.32 3.3-7.5 9.5-7.5 9.5s-5.18-6.2-7.5-9.5a49.56 49.56 0 0 1-5-8c-1.21-2.69-2.5-5-2.5-8.5 0-5 2-9 6.5-9 3.5 0 5.5 5 6 7 .5.5.5 0 .5-.5-.5-4-.5-5-1-8s-2-8.5-2-8.5a17 17 0 0 0 10 0s-1.5 5.5-2 8.5-.5 4-1 8c0 .5 0 1 .5.5Z"/></g></svg>